<?xml version="1.0" encoding="UTF-8" standalone="no"?>
<!DOCTYPE svg PUBLIC "-//W3C//DTD SVG 1.1//EN"
 "http://www.w3.org/Graphics/SVG/1.1/DTD/svg11.dtd">
<!-- Generated by graphviz version 2.47.3 (20210619.1520)
 -->
<!-- Pages: 1 -->
<svg width="619pt" height="299pt"
 viewBox="0.00 0.00 619.25 299.00" xmlns="http://www.w3.org/2000/svg" xmlns:xlink="http://www.w3.org/1999/xlink">
<g id="graph0" class="graph" transform="scale(1 1) rotate(0) translate(4 295)">
<polygon fill="white" stroke="transparent" points="-4,4 -4,-295 615.25,-295 615.25,4 -4,4"/>
<!-- fake -->
<g id="node1" class="node">
<title>fake</title>
</g>
<!-- 3 -->
<g id="node4" class="node">
<title>3</title>
<ellipse fill="none" stroke="black" cx="146.25" cy="-200" rx="27" ry="18"/>
<text text-anchor="middle" x="146.25" y="-196.3" font-family="Times New Roman,serif" font-size="14.00">3</text>
</g>
<!-- fake&#45;&gt;3 -->
<g id="edge1" class="edge">
<title>fake&#45;&gt;3</title>
<path fill="none" stroke="black" stroke-width="2" d="M146.25,-254.81C146.25,-246.79 146.25,-237.05 146.25,-228.07"/>
<polygon fill="black" stroke="black" stroke-width="2" points="149.75,-228.03 146.25,-218.03 142.75,-228.03 149.75,-228.03"/>
</g>
<!-- 0 -->
<g id="node2" class="node">
<title>0</title>
<ellipse fill="none" stroke="black" cx="214.25" cy="-22" rx="18" ry="18"/>
<ellipse fill="none" stroke="black" cx="214.25" cy="-22" rx="22" ry="22"/>
<text text-anchor="middle" x="214.25" y="-18.3" font-family="Times New Roman,serif" font-size="14.00">0</text>
</g>
<!-- 0&#45;&gt;0 -->
<g id="edge2" class="edge">
<title>0&#45;&gt;0</title>
<path fill="none" stroke="black" d="M236.46,-23.48C246.04,-23.6 254.25,-23.11 254.25,-22 254.25,-21.32 251.2,-20.88 246.65,-20.66"/>
<polygon fill="black" stroke="black" points="246.5,-17.16 236.46,-20.52 246.41,-24.15 246.5,-17.16"/>
<text text-anchor="middle" x="264.25" y="-18.3" font-family="Times New Roman,serif" font-size="14.00">{a}</text>
</g>
<!-- 0&#45;&gt;0 -->
<g id="edge3" class="edge">
<title>0&#45;&gt;0</title>
<path fill="none" stroke="black" d="M236.11,-24.54C254.58,-25.63 274.25,-24.78 274.25,-22 274.25,-19.74 261.27,-18.76 246.49,-19.05"/>
<polygon fill="black" stroke="black" points="245.96,-15.57 236.11,-19.46 246.23,-22.56 245.96,-15.57"/>
<text text-anchor="middle" x="281.25" y="-18.3" font-family="Times New Roman,serif" font-size="14.00">{}</text>
</g>
<!-- 0&#45;&gt;0 -->
<g id="edge4" class="edge">
<title>0&#45;&gt;0</title>
<path fill="none" stroke="black" d="M236.33,-25.3C262,-27.65 292.25,-26.55 292.25,-22 292.25,-18.04 269.3,-16.69 246.41,-17.96"/>
<polygon fill="black" stroke="black" points="246.04,-14.48 236.33,-18.7 246.55,-21.46 246.04,-14.48"/>
<text text-anchor="middle" x="309.75" y="-18.3" font-family="Times New Roman,serif" font-size="14.00">{a, b}</text>
</g>
<!-- 0&#45;&gt;0 -->
<g id="edge5" class="edge">
<title>0&#45;&gt;0</title>
<path fill="none" stroke="black" d="M236.04,-25.63C273.07,-29.72 327.25,-28.52 327.25,-22 327.25,-16.07 282.37,-14.54 246.39,-17.4"/>
<polygon fill="black" stroke="black" points="245.67,-13.95 236.04,-18.37 246.33,-20.92 245.67,-13.95"/>
<text text-anchor="middle" x="344.25" y="-18.3" font-family="Times New Roman,serif" font-size="14.00">{a, c}</text>
</g>
<!-- 0&#45;&gt;0 -->
<g id="edge6" class="edge">
<title>0&#45;&gt;0</title>
<path fill="none" stroke="black" d="M236.02,-25.91C282.81,-31.76 361.25,-30.46 361.25,-22 361.25,-14.12 293.17,-12.45 246.03,-16.99"/>
<polygon fill="black" stroke="black" points="245.58,-13.51 236.02,-18.09 246.35,-20.47 245.58,-13.51"/>
<text text-anchor="middle" x="385.75" y="-18.3" font-family="Times New Roman,serif" font-size="14.00">{a, b, c}</text>
</g>
<!-- 0&#45;&gt;0 -->
<g id="edge7" class="edge">
<title>0&#45;&gt;0</title>
<path fill="none" stroke="black" d="M235.89,-26.04C294.4,-33.8 410.25,-32.45 410.25,-22 410.25,-12.12 306.73,-10.37 245.98,-16.77"/>
<polygon fill="black" stroke="black" points="245.41,-13.31 235.89,-17.96 246.23,-20.26 245.41,-13.31"/>
<text text-anchor="middle" x="420.75" y="-18.3" font-family="Times New Roman,serif" font-size="14.00">{c}</text>
</g>
<!-- 0&#45;&gt;0 -->
<g id="edge8" class="edge">
<title>0&#45;&gt;0</title>
<path fill="none" stroke="black" d="M236,-26.35C300.57,-35.81 431.25,-34.36 431.25,-22 431.25,-10.27 313.51,-8.37 246.33,-16.3"/>
<polygon fill="black" stroke="black" points="245.46,-12.88 236,-17.65 246.38,-19.82 245.46,-12.88"/>
<text text-anchor="middle" x="442.25" y="-18.3" font-family="Times New Roman,serif" font-size="14.00">{b}</text>
</g>
<!-- 0&#45;&gt;0 -->
<g id="edge9" class="edge">
<title>0&#45;&gt;0</title>
<path fill="none" stroke="black" d="M236.13,-26.6C306.92,-37.82 453.25,-36.28 453.25,-22 453.25,-8.36 319.77,-6.35 246.11,-15.96"/>
<polygon fill="black" stroke="black" points="245.53,-12.51 236.13,-17.4 246.53,-19.44 245.53,-12.51"/>
<text text-anchor="middle" x="471.25" y="-18.3" font-family="Times New Roman,serif" font-size="14.00">{b, c}</text>
</g>
<!-- 1 -->
<g id="node3" class="node">
<title>1</title>
<ellipse fill="none" stroke="black" cx="288.25" cy="-113" rx="27" ry="18"/>
<text text-anchor="middle" x="288.25" y="-109.3" font-family="Times New Roman,serif" font-size="14.00">1</text>
</g>
<!-- 1&#45;&gt;0 -->
<g id="edge12" class="edge">
<title>1&#45;&gt;0</title>
<path fill="none" stroke="black" d="M265.95,-102.59C254.45,-96.73 241.04,-88.17 232.25,-77 226.9,-70.21 223.11,-61.76 220.43,-53.57"/>
<polygon fill="black" stroke="black" points="223.77,-52.52 217.68,-43.85 217.03,-54.42 223.77,-52.52"/>
<text text-anchor="middle" x="249.25" y="-65.8" font-family="Times New Roman,serif" font-size="14.00">{a, c}</text>
</g>
<!-- 1&#45;&gt;0 -->
<g id="edge13" class="edge">
<title>1&#45;&gt;0</title>
<path fill="none" stroke="black" d="M283.24,-95.07C279.63,-84.79 274.03,-71.81 266.25,-62 259.41,-53.38 250.23,-45.67 241.5,-39.43"/>
<polygon fill="black" stroke="black" points="243.25,-36.39 233.01,-33.69 239.33,-42.19 243.25,-36.39"/>
<text text-anchor="middle" x="298.75" y="-65.8" font-family="Times New Roman,serif" font-size="14.00">{a, b, c}</text>
</g>
<!-- 1&#45;&gt;0 -->
<g id="edge14" class="edge">
<title>1&#45;&gt;0</title>
<path fill="none" stroke="black" d="M307.7,-100.3C321.79,-90.3 336.83,-75.45 327.25,-62 309.06,-36.49 273.03,-27.5 246.52,-24.42"/>
<polygon fill="black" stroke="black" points="246.82,-20.94 236.53,-23.49 246.16,-27.91 246.82,-20.94"/>
<text text-anchor="middle" x="340.75" y="-65.8" font-family="Times New Roman,serif" font-size="14.00">{c}</text>
</g>
<!-- 1&#45;&gt;0 -->
<g id="edge15" class="edge">
<title>1&#45;&gt;0</title>
<path fill="none" stroke="black" d="M312.68,-104.91C337.33,-96.5 369.84,-81.17 355.25,-62 342.07,-44.68 283.34,-33.07 245.95,-27.29"/>
<polygon fill="black" stroke="black" points="246.44,-23.82 236.03,-25.81 245.41,-30.75 246.44,-23.82"/>
<text text-anchor="middle" x="376.25" y="-65.8" font-family="Times New Roman,serif" font-size="14.00">{b, c}</text>
</g>
<!-- 1&#45;&gt;1 -->
<g id="edge10" class="edge">
<title>1&#45;&gt;1</title>
<path fill="none" stroke="black" d="M315.04,-116.93C325.03,-117.06 333.25,-115.75 333.25,-113 333.25,-111.28 330.03,-110.13 325.19,-109.53"/>
<polygon fill="black" stroke="black" points="325.19,-106.03 315.04,-109.07 324.87,-113.02 325.19,-106.03"/>
<text text-anchor="middle" x="344.25" y="-109.3" font-family="Times New Roman,serif" font-size="14.00">{b}</text>
</g>
<!-- 1&#45;&gt;1 -->
<g id="edge11" class="edge">
<title>1&#45;&gt;1</title>
<path fill="none" stroke="black" d="M313.44,-119.81C333.75,-122.45 355.25,-120.18 355.25,-113 355.25,-107 340.22,-104.43 323.43,-105.29"/>
<polygon fill="black" stroke="black" points="323.08,-101.8 313.44,-106.19 323.71,-108.77 323.08,-101.8"/>
<text text-anchor="middle" x="372.75" y="-109.3" font-family="Times New Roman,serif" font-size="14.00">{a, b}</text>
</g>
<!-- 3&#45;&gt;0 -->
<g id="edge19" class="edge">
<title>3&#45;&gt;0</title>
<path fill="none" stroke="black" d="M121.29,-192.63C100.68,-186.8 71.05,-177.09 47.25,-164 26.45,-152.56 15.62,-152.35 5.25,-131 -1.75,-116.61 -1.75,-109.39 5.25,-95 15.62,-73.65 25.85,-72.28 47.25,-62 91.39,-40.8 147.75,-30.74 182.4,-26.26"/>
<polygon fill="black" stroke="black" points="182.92,-29.72 192.42,-25.04 182.07,-22.78 182.92,-29.72"/>
<text text-anchor="middle" x="22.25" y="-109.3" font-family="Times New Roman,serif" font-size="14.00">{a, c}</text>
</g>
<!-- 3&#45;&gt;0 -->
<g id="edge20" class="edge">
<title>3&#45;&gt;0</title>
<path fill="none" stroke="black" d="M127.34,-186.91C100.13,-167.91 55.26,-129.66 75.25,-95 97.7,-56.06 149.16,-37.38 182.77,-29.04"/>
<polygon fill="black" stroke="black" points="183.62,-32.43 192.58,-26.77 182.05,-25.61 183.62,-32.43"/>
<text text-anchor="middle" x="99.75" y="-109.3" font-family="Times New Roman,serif" font-size="14.00">{a, b, c}</text>
</g>
<!-- 3&#45;&gt;0 -->
<g id="edge21" class="edge">
<title>3&#45;&gt;0</title>
<path fill="none" stroke="black" d="M146.02,-181.78C146.3,-160.61 148.65,-123.92 160.25,-95 167.56,-76.74 180.74,-59.03 192.25,-45.75"/>
<polygon fill="black" stroke="black" points="195.05,-47.86 199.13,-38.08 189.84,-43.18 195.05,-47.86"/>
<text text-anchor="middle" x="170.75" y="-109.3" font-family="Times New Roman,serif" font-size="14.00">{c}</text>
</g>
<!-- 3&#45;&gt;0 -->
<g id="edge22" class="edge">
<title>3&#45;&gt;0</title>
<path fill="none" stroke="black" d="M155.57,-182.9C163.16,-169.36 173.8,-149.33 181.25,-131 191.63,-105.44 200.57,-75.35 206.51,-53.43"/>
<polygon fill="black" stroke="black" points="209.92,-54.25 209.11,-43.68 203.15,-52.45 209.92,-54.25"/>
<text text-anchor="middle" x="211.25" y="-109.3" font-family="Times New Roman,serif" font-size="14.00">{b, c}</text>
</g>
<!-- 3&#45;&gt;1 -->
<g id="edge17" class="edge">
<title>3&#45;&gt;1</title>
<path fill="none" stroke="black" d="M168.14,-189.28C182.42,-182.69 201.29,-173.47 217.25,-164 232.98,-154.66 249.76,-142.93 263.06,-133.18"/>
<polygon fill="black" stroke="black" points="265.3,-135.88 271.24,-127.11 261.13,-130.26 265.3,-135.88"/>
<text text-anchor="middle" x="250.25" y="-152.8" font-family="Times New Roman,serif" font-size="14.00">{b}</text>
</g>
<!-- 3&#45;&gt;3 -->
<g id="edge16" class="edge">
<title>3&#45;&gt;3</title>
<path fill="none" stroke="black" d="M173.04,-203.37C183.03,-203.48 191.25,-202.36 191.25,-200 191.25,-198.53 188.03,-197.54 183.19,-197.03"/>
<polygon fill="black" stroke="black" points="183.17,-193.53 173.04,-196.63 182.9,-200.52 183.17,-193.53"/>
<text text-anchor="middle" x="208.75" y="-196.3" font-family="Times New Roman,serif" font-size="14.00">{a, b}</text>
</g>
<!-- 3&#45;&gt;3 -->
<g id="edge18" class="edge">
<title>3&#45;&gt;3</title>
<path fill="none" stroke="black" d="M172.05,-205.59C196.75,-208.23 226.25,-206.36 226.25,-200 226.25,-194.48 204.07,-192.35 182.06,-193.6"/>
<polygon fill="black" stroke="black" points="181.73,-190.11 172.05,-194.41 182.3,-197.09 181.73,-190.11"/>
<text text-anchor="middle" x="236.25" y="-196.3" font-family="Times New Roman,serif" font-size="14.00">{a}</text>
</g>
</g>
</svg>
