<?xml version="1.0" encoding="UTF-8" standalone="no"?>
<!DOCTYPE svg PUBLIC "-//W3C//DTD SVG 1.1//EN"
 "http://www.w3.org/Graphics/SVG/1.1/DTD/svg11.dtd">
<!-- Generated by graphviz version 2.47.3 (20210619.1520)
 -->
<!-- Pages: 1 -->
<svg width="4142pt" height="499pt"
 viewBox="0.00 0.00 4142.00 499.24" xmlns="http://www.w3.org/2000/svg" xmlns:xlink="http://www.w3.org/1999/xlink">
<g id="graph0" class="graph" transform="scale(1 1) rotate(0) translate(4 495.24)">
<polygon fill="white" stroke="transparent" points="-4,4 -4,-495.24 4138,-495.24 4138,4 -4,4"/>
<!-- fake -->
<g id="node1" class="node">
<title>fake</title>
</g>
<!-- 1 -->
<g id="node3" class="node">
<title>1</title>
<ellipse fill="none" stroke="black" cx="948" cy="-400.24" rx="27" ry="18"/>
<text text-anchor="middle" x="948" y="-396.54" font-family="Times New Roman,serif" font-size="14.00">1</text>
</g>
<!-- fake&#45;&gt;1 -->
<g id="edge1" class="edge">
<title>fake&#45;&gt;1</title>
<path fill="none" stroke="black" stroke-width="2" d="M948,-455.06C948,-447.03 948,-437.29 948,-428.31"/>
<polygon fill="black" stroke="black" stroke-width="2" points="951.5,-428.27 948,-418.27 944.5,-428.27 951.5,-428.27"/>
</g>
<!-- 0 -->
<g id="node2" class="node">
<title>0</title>
<ellipse fill="none" stroke="black" cx="2939" cy="-139.24" rx="27" ry="18"/>
<text text-anchor="middle" x="2939" y="-135.54" font-family="Times New Roman,serif" font-size="14.00">0</text>
</g>
<!-- 0&#45;&gt;0 -->
<g id="edge3" class="edge">
<title>0&#45;&gt;0</title>
<path fill="none" stroke="black" d="M2966.24,-140.74C2976.02,-140.77 2984,-140.27 2984,-139.24 2984,-138.61 2981.04,-138.18 2976.51,-137.95"/>
<polygon fill="black" stroke="black" points="2976.31,-134.44 2966.24,-137.74 2976.17,-141.44 2976.31,-134.44"/>
<text text-anchor="middle" x="3008.5" y="-135.54" font-family="Times New Roman,serif" font-size="14.00">{a, c, d}</text>
</g>
<!-- 0&#45;&gt;0 -->
<g id="edge7" class="edge">
<title>0&#45;&gt;0</title>
<path fill="none" stroke="black" d="M2965.81,-141.65C2994.88,-142.93 3033,-142.13 3033,-139.24 3033,-136.68 3003.03,-135.76 2975.97,-136.48"/>
<polygon fill="black" stroke="black" points="2975.68,-132.99 2965.81,-136.84 2975.92,-139.98 2975.68,-132.99"/>
<text text-anchor="middle" x="3044" y="-135.54" font-family="Times New Roman,serif" font-size="14.00">{d}</text>
</g>
<!-- 0&#45;&gt;0 -->
<g id="edge11" class="edge">
<title>0&#45;&gt;0</title>
<path fill="none" stroke="black" d="M2965.7,-142.43C3002.3,-144.92 3055,-143.86 3055,-139.24 3055,-135.04 3011.34,-133.78 2975.9,-135.47"/>
<polygon fill="black" stroke="black" points="2975.48,-131.98 2965.7,-136.05 2975.88,-138.97 2975.48,-131.98"/>
<text text-anchor="middle" x="3087" y="-135.54" font-family="Times New Roman,serif" font-size="14.00">{a, b, c, d}</text>
</g>
<!-- 0&#45;&gt;0 -->
<g id="edge12" class="edge">
<title>0&#45;&gt;0</title>
<path fill="none" stroke="black" d="M2965.55,-142.72C3019.14,-146.99 3119,-145.84 3119,-139.24 3119,-133.05 3030.86,-131.65 2975.76,-135.05"/>
<polygon fill="black" stroke="black" points="2975.28,-131.57 2965.55,-135.77 2975.77,-138.56 2975.28,-131.57"/>
<text text-anchor="middle" x="3144.5" y="-135.54" font-family="Times New Roman,serif" font-size="14.00">{b, c, d}</text>
</g>
<!-- 0&#45;&gt;0 -->
<g id="edge14" class="edge">
<title>0&#45;&gt;0</title>
<path fill="none" stroke="black" d="M2965.8,-143.08C3031.41,-149.02 3170,-147.74 3170,-139.24 3170,-131.16 3044.61,-129.61 2975.91,-134.59"/>
<polygon fill="black" stroke="black" points="2975.49,-131.11 2965.8,-135.41 2976.05,-138.09 2975.49,-131.11"/>
<text text-anchor="middle" x="3188.5" y="-135.54" font-family="Times New Roman,serif" font-size="14.00">{b, d}</text>
</g>
<!-- 0&#45;&gt;0 -->
<g id="edge19" class="edge">
<title>0&#45;&gt;0</title>
<path fill="none" stroke="black" d="M2965.41,-143.39C3039.3,-151.03 3207,-149.65 3207,-139.24 3207,-129.28 3053.4,-127.59 2975.43,-134.16"/>
<polygon fill="black" stroke="black" points="2975.04,-130.68 2965.41,-135.1 2975.69,-137.65 2975.04,-130.68"/>
<text text-anchor="middle" x="3224.5" y="-135.54" font-family="Times New Roman,serif" font-size="14.00">{a, d}</text>
</g>
<!-- 0&#45;&gt;0 -->
<g id="edge21" class="edge">
<title>0&#45;&gt;0</title>
<path fill="none" stroke="black" d="M2965.29,-143.68C3046.9,-153.04 3242,-151.56 3242,-139.24 3242,-127.41 3061.85,-125.58 2975.36,-133.76"/>
<polygon fill="black" stroke="black" points="2974.88,-130.29 2965.29,-134.8 2975.6,-137.25 2974.88,-130.29"/>
<text text-anchor="middle" x="3260" y="-135.54" font-family="Times New Roman,serif" font-size="14.00">{c, d}</text>
</g>
<!-- 0&#45;&gt;0 -->
<g id="edge23" class="edge">
<title>0&#45;&gt;0</title>
<path fill="none" stroke="black" d="M2965.11,-143.92C3054.31,-155.05 3278,-153.49 3278,-139.24 3278,-125.51 3070.19,-123.56 2975.29,-133.41"/>
<polygon fill="black" stroke="black" points="2974.66,-129.96 2965.11,-134.57 2975.45,-136.91 2974.66,-129.96"/>
<text text-anchor="middle" x="3303" y="-135.54" font-family="Times New Roman,serif" font-size="14.00">{a, b, d}</text>
</g>
<!-- 4 -->
<g id="node5" class="node">
<title>4</title>
<ellipse fill="none" stroke="black" cx="2177" cy="-48.24" rx="18" ry="18"/>
<ellipse fill="none" stroke="black" cx="2177" cy="-48.24" rx="22" ry="22"/>
<text text-anchor="middle" x="2177" y="-44.54" font-family="Times New Roman,serif" font-size="14.00">4</text>
</g>
<!-- 0&#45;&gt;4 -->
<g id="edge2" class="edge">
<title>0&#45;&gt;4</title>
<path fill="none" stroke="black" d="M2917.76,-127.75C2911.54,-125.15 2904.63,-122.69 2898,-121.24 2789.58,-97.62 2504.77,-136.77 2399,-103.24 2387.37,-99.55 2387.31,-92.83 2376,-88.24 2319.86,-65.44 2249.25,-55.67 2209.01,-51.72"/>
<polygon fill="black" stroke="black" points="2209.26,-48.23 2198.98,-50.79 2208.62,-55.2 2209.26,-48.23"/>
<text text-anchor="middle" x="2423.5" y="-92.04" font-family="Times New Roman,serif" font-size="14.00">{a, b, e}</text>
</g>
<!-- 0&#45;&gt;4 -->
<g id="edge4" class="edge">
<title>0&#45;&gt;4</title>
<path fill="none" stroke="black" d="M2917.76,-127.78C2911.53,-125.17 2904.62,-122.71 2898,-121.24 2805.27,-100.74 2561.45,-132.22 2471,-103.24 2459.38,-99.52 2459.42,-92.55 2448,-88.24 2365.99,-57.33 2261.53,-50.72 2209.5,-49.43"/>
<polygon fill="black" stroke="black" points="2209.29,-45.93 2199.22,-49.23 2209.15,-52.93 2209.29,-45.93"/>
<text text-anchor="middle" x="2502.5" y="-92.04" font-family="Times New Roman,serif" font-size="14.00">{a, c, d, e}</text>
</g>
<!-- 0&#45;&gt;4 -->
<g id="edge5" class="edge">
<title>0&#45;&gt;4</title>
<path fill="none" stroke="black" d="M2917.75,-127.82C2911.52,-125.22 2904.61,-122.74 2898,-121.24 2823.99,-104.47 2629.14,-126.78 2557,-103.24 2545.4,-99.46 2545.49,-92.35 2534,-88.24 2474.55,-66.99 2285.71,-54.95 2209.43,-50.85"/>
<polygon fill="black" stroke="black" points="2209.19,-47.34 2199.02,-50.31 2208.82,-54.33 2209.19,-47.34"/>
<text text-anchor="middle" x="2581.5" y="-92.04" font-family="Times New Roman,serif" font-size="14.00">{b, c, e}</text>
</g>
<!-- 0&#45;&gt;4 -->
<g id="edge6" class="edge">
<title>0&#45;&gt;4</title>
<path fill="none" stroke="black" d="M2917.73,-127.88C2911.51,-125.28 2904.6,-122.79 2898,-121.24 2781.33,-93.93 2742.65,-141.2 2629,-103.24 2617.42,-99.38 2617.53,-92.25 2606,-88.24 2532.59,-62.74 2295.63,-52.94 2209.05,-50.16"/>
<polygon fill="black" stroke="black" points="2209.13,-46.66 2199.03,-49.84 2208.91,-53.65 2209.13,-46.66"/>
<text text-anchor="middle" x="2661" y="-92.04" font-family="Times New Roman,serif" font-size="14.00">{b, c, d, e}</text>
</g>
<!-- 0&#45;&gt;4 -->
<g id="edge8" class="edge">
<title>0&#45;&gt;4</title>
<path fill="none" stroke="black" d="M2917.7,-128.02C2911.48,-125.42 2904.58,-122.89 2898,-121.24 2819.16,-101.46 2792.68,-130.21 2716,-103.24 2704.49,-99.19 2704.56,-92.16 2693,-88.24 2602.79,-57.68 2307.99,-50.99 2209.43,-49.59"/>
<polygon fill="black" stroke="black" points="2209.24,-46.09 2199.19,-49.46 2209.14,-53.09 2209.24,-46.09"/>
<text text-anchor="middle" x="2733" y="-92.04" font-family="Times New Roman,serif" font-size="14.00">{a, e}</text>
</g>
<!-- 0&#45;&gt;4 -->
<g id="edge9" class="edge">
<title>0&#45;&gt;4</title>
<path fill="none" stroke="black" d="M2917.65,-128.21C2911.43,-125.61 2904.54,-123.04 2898,-121.24 2843.88,-106.38 2825.52,-123.04 2773,-103.24 2761.58,-98.94 2761.57,-92.12 2750,-88.24 2648.53,-54.29 2314.44,-49.85 2209.11,-49.31"/>
<polygon fill="black" stroke="black" points="2209.1,-45.81 2199.08,-49.26 2209.07,-52.81 2209.1,-45.81"/>
<text text-anchor="middle" x="2790" y="-92.04" font-family="Times New Roman,serif" font-size="14.00">{c, e}</text>
</g>
<!-- 0&#45;&gt;4 -->
<g id="edge10" class="edge">
<title>0&#45;&gt;4</title>
<path fill="none" stroke="black" d="M2917.08,-128.52C2910.97,-125.98 2904.28,-123.36 2898,-121.24 2868.38,-111.23 2858.57,-115.94 2830,-103.24 2818.85,-98.28 2818.59,-92.08 2807,-88.24 2694.38,-50.94 2321.61,-48.84 2209.3,-49.08"/>
<polygon fill="black" stroke="black" points="2209.25,-45.58 2199.26,-49.11 2209.27,-52.58 2209.25,-45.58"/>
<text text-anchor="middle" x="2855" y="-92.04" font-family="Times New Roman,serif" font-size="14.00">{b, d, e}</text>
</g>
<!-- 0&#45;&gt;4 -->
<g id="edge13" class="edge">
<title>0&#45;&gt;4</title>
<path fill="none" stroke="black" d="M2924.28,-123.85C2910.27,-110.52 2889.92,-92.19 2880,-88.24 2817.25,-63.24 2338.77,-52.34 2209.25,-49.83"/>
<polygon fill="black" stroke="black" points="2209.23,-46.33 2199.17,-49.63 2209.1,-53.32 2209.23,-46.33"/>
<text text-anchor="middle" x="2940" y="-92.04" font-family="Times New Roman,serif" font-size="14.00">{a, b, c, d, e}</text>
</g>
<!-- 0&#45;&gt;4 -->
<g id="edge15" class="edge">
<title>0&#45;&gt;4</title>
<path fill="none" stroke="black" d="M2959.11,-126.98C2975.17,-116.61 2993.12,-100.96 2981,-88.24 2953.96,-59.86 2356.64,-51.27 2209.52,-49.58"/>
<polygon fill="black" stroke="black" points="2209.38,-46.08 2199.34,-49.47 2209.3,-53.08 2209.38,-46.08"/>
<text text-anchor="middle" x="2994" y="-92.04" font-family="Times New Roman,serif" font-size="14.00">{e}</text>
</g>
<!-- 0&#45;&gt;4 -->
<g id="edge16" class="edge">
<title>0&#45;&gt;4</title>
<path fill="none" stroke="black" d="M2963.47,-131.11C2989.66,-122.33 3025.26,-106.33 3008,-88.24 2979.97,-58.87 2359.98,-51.01 2209.63,-49.53"/>
<polygon fill="black" stroke="black" points="2209.27,-46.03 2199.24,-49.43 2209.2,-53.03 2209.27,-46.03"/>
<text text-anchor="middle" x="3036" y="-92.04" font-family="Times New Roman,serif" font-size="14.00">{a, c, e}</text>
</g>
<!-- 0&#45;&gt;4 -->
<g id="edge17" class="edge">
<title>0&#45;&gt;4</title>
<path fill="none" stroke="black" d="M2965.76,-136.38C3010.98,-132.33 3094.7,-120.33 3064,-88.24 3033.92,-56.81 2366.66,-50.48 2209.8,-49.43"/>
<polygon fill="black" stroke="black" points="2209.43,-45.93 2199.41,-49.36 2209.38,-52.93 2209.43,-45.93"/>
<text text-anchor="middle" x="3102" y="-92.04" font-family="Times New Roman,serif" font-size="14.00">{a, b, d, e}</text>
</g>
<!-- 0&#45;&gt;4 -->
<g id="edge18" class="edge">
<title>0&#45;&gt;4</title>
<path fill="none" stroke="black" d="M2966.03,-137.61C3015.24,-135.83 3116.35,-129.03 3138,-103.24 3142.29,-98.14 3142.62,-93.05 3138,-88.24 3105.18,-54.06 2374.74,-49.83 2209.87,-49.31"/>
<polygon fill="black" stroke="black" points="2209.42,-45.81 2199.41,-49.28 2209.4,-52.81 2209.42,-45.81"/>
<text text-anchor="middle" x="3158.5" y="-92.04" font-family="Times New Roman,serif" font-size="14.00">{b, e}</text>
</g>
<!-- 0&#45;&gt;4 -->
<g id="edge20" class="edge">
<title>0&#45;&gt;4</title>
<path fill="none" stroke="black" d="M2966.29,-138.54C3023.42,-138.52 3152.61,-134.89 3180,-103.24 3184.36,-98.2 3184.62,-93.05 3180,-88.24 3145.57,-52.45 2376.92,-49.48 2209.15,-49.26"/>
<polygon fill="black" stroke="black" points="2208.99,-45.76 2198.98,-49.24 2208.98,-52.76 2208.99,-45.76"/>
<text text-anchor="middle" x="3207.5" y="-92.04" font-family="Times New Roman,serif" font-size="14.00">{a, d, e}</text>
</g>
<!-- 0&#45;&gt;4 -->
<g id="edge22" class="edge">
<title>0&#45;&gt;4</title>
<path fill="none" stroke="black" d="M2966,-137.85C3046.08,-136.23 3274.42,-128.1 3236,-88.24 3199.5,-50.37 2382.96,-49.04 2209.29,-49.19"/>
<polygon fill="black" stroke="black" points="2209.24,-45.69 2199.24,-49.2 2209.24,-52.69 2209.24,-45.69"/>
<text text-anchor="middle" x="3264.5" y="-92.04" font-family="Times New Roman,serif" font-size="14.00">{c, d, e}</text>
</g>
<!-- 0&#45;&gt;4 -->
<g id="edge24" class="edge">
<title>0&#45;&gt;4</title>
<path fill="none" stroke="black" d="M2966.26,-138.5C3056.85,-138.9 3339.46,-136.35 3293,-88.24 3254.4,-48.27 2389.48,-48.62 2209.59,-49.12"/>
<polygon fill="black" stroke="black" points="2209.43,-45.62 2199.44,-49.15 2209.45,-52.62 2209.43,-45.62"/>
<text text-anchor="middle" x="3315.5" y="-92.04" font-family="Times New Roman,serif" font-size="14.00">{d, e}</text>
</g>
<!-- 0&#45;&gt;4 -->
<g id="edge25" class="edge">
<title>0&#45;&gt;4</title>
<path fill="none" stroke="black" d="M2966.2,-137.93C3051.88,-136.65 3311.99,-130.54 3337,-103.24 3341.5,-98.33 3341.63,-93.03 3337,-88.24 3296.72,-46.59 2392.15,-48.3 2209.12,-49.08"/>
<polygon fill="black" stroke="black" points="2209.04,-45.58 2199.05,-49.12 2209.07,-52.58 2209.04,-45.58"/>
<text text-anchor="middle" x="3371.5" y="-92.04" font-family="Times New Roman,serif" font-size="14.00">{a, b, c, e}</text>
</g>
<!-- 1&#45;&gt;0 -->
<g id="edge33" class="edge">
<title>1&#45;&gt;0</title>
<path fill="none" stroke="black" d="M975.22,-399.44C1225.29,-401.03 3126.5,-408.68 3678,-277.24 3775.48,-254.01 3830.47,-273.66 3886,-190.24 3889.69,-184.69 3890.63,-180.04 3886,-175.24 3881.98,-171.07 3150.93,-147.11 2976.19,-141.44"/>
<polygon fill="black" stroke="black" points="2976.3,-137.95 2966.19,-141.12 2976.07,-144.94 2976.3,-137.95"/>
<text text-anchor="middle" x="3776" y="-266.04" font-family="Times New Roman,serif" font-size="14.00">{d}</text>
</g>
<!-- 1&#45;&gt;1 -->
<g id="edge28" class="edge">
<title>1&#45;&gt;1</title>
<path fill="none" stroke="black" d="M975.24,-401.74C985.02,-401.77 993,-401.27 993,-400.24 993,-399.61 990.04,-399.18 985.51,-398.95"/>
<polygon fill="black" stroke="black" points="985.31,-395.44 975.24,-398.74 985.17,-402.44 985.31,-395.44"/>
<text text-anchor="middle" x="1003" y="-396.54" font-family="Times New Roman,serif" font-size="14.00">{a}</text>
</g>
<!-- 1&#45;&gt;1 -->
<g id="edge29" class="edge">
<title>1&#45;&gt;1</title>
<path fill="none" stroke="black" d="M974.75,-402.93C993.82,-403.78 1013,-402.88 1013,-400.24 1013,-398.08 1000.1,-397.08 984.93,-397.26"/>
<polygon fill="black" stroke="black" points="984.65,-393.77 974.75,-397.55 984.84,-400.77 984.65,-393.77"/>
<text text-anchor="middle" x="1030.5" y="-396.54" font-family="Times New Roman,serif" font-size="14.00">{a, b}</text>
</g>
<!-- 1&#45;&gt;1 -->
<g id="edge35" class="edge">
<title>1&#45;&gt;1</title>
<path fill="none" stroke="black" d="M975.02,-403.62C1006.94,-405.87 1048,-404.74 1048,-400.24 1048,-396.22 1015.14,-394.89 985.36,-396.27"/>
<polygon fill="black" stroke="black" points="984.8,-392.79 975.02,-396.87 985.2,-399.78 984.8,-392.79"/>
<text text-anchor="middle" x="1073" y="-396.54" font-family="Times New Roman,serif" font-size="14.00">{a, b, d}</text>
</g>
<!-- 1&#45;&gt;1 -->
<g id="edge44" class="edge">
<title>1&#45;&gt;1</title>
<path fill="none" stroke="black" d="M974.43,-403.93C1021.13,-407.96 1098,-406.73 1098,-400.24 1098,-394.21 1031.56,-392.73 984.69,-395.79"/>
<polygon fill="black" stroke="black" points="984.14,-392.32 974.43,-396.56 984.67,-399.3 984.14,-392.32"/>
<text text-anchor="middle" x="1115" y="-396.54" font-family="Times New Roman,serif" font-size="14.00">{a, c}</text>
</g>
<!-- 1&#45;&gt;1 -->
<g id="edge47" class="edge">
<title>1&#45;&gt;1</title>
<path fill="none" stroke="black" d="M974.65,-404.36C1030.68,-409.97 1132,-408.6 1132,-400.24 1132,-392.37 1042.2,-390.7 984.93,-395.21"/>
<polygon fill="black" stroke="black" points="984.3,-391.76 974.65,-396.13 984.92,-398.73 984.3,-391.76"/>
<text text-anchor="middle" x="1156.5" y="-396.54" font-family="Times New Roman,serif" font-size="14.00">{a, b, c}</text>
</g>
<!-- 1&#45;&gt;1 -->
<g id="edge49" class="edge">
<title>1&#45;&gt;1</title>
<path fill="none" stroke="black" d="M974.55,-404.59C1042.16,-412 1181,-410.55 1181,-400.24 1181,-390.41 1054.87,-388.63 984.5,-394.91"/>
<polygon fill="black" stroke="black" points="984.15,-391.42 974.55,-395.89 984.84,-398.39 984.15,-391.42"/>
<text text-anchor="middle" x="1198.5" y="-396.54" font-family="Times New Roman,serif" font-size="14.00">{a, d}</text>
</g>
<!-- 1&#45;&gt;1 -->
<g id="edge53" class="edge">
<title>1&#45;&gt;1</title>
<path fill="none" stroke="black" d="M974.16,-404.84C1049.86,-414.02 1216,-412.49 1216,-400.24 1216,-388.52 1063.83,-386.61 984.4,-394.52"/>
<polygon fill="black" stroke="black" points="983.72,-391.08 974.16,-395.65 984.48,-398.04 983.72,-391.08"/>
<text text-anchor="middle" x="1248" y="-396.54" font-family="Times New Roman,serif" font-size="14.00">{a, b, c, d}</text>
</g>
<!-- 1&#45;&gt;1 -->
<g id="edge56" class="edge">
<title>1&#45;&gt;1</title>
<path fill="none" stroke="black" d="M974.17,-404.95C1062.34,-416.05 1280,-414.48 1280,-400.24 1280,-386.52 1077.79,-384.57 984.22,-394.38"/>
<polygon fill="black" stroke="black" points="983.71,-390.91 974.17,-395.53 984.51,-397.87 983.71,-390.91"/>
<text text-anchor="middle" x="1304.5" y="-396.54" font-family="Times New Roman,serif" font-size="14.00">{a, c, d}</text>
</g>
<!-- 2 -->
<g id="node4" class="node">
<title>2</title>
<ellipse fill="none" stroke="black" cx="2307" cy="-226.24" rx="27" ry="18"/>
<text text-anchor="middle" x="2307" y="-222.54" font-family="Times New Roman,serif" font-size="14.00">2</text>
</g>
<!-- 1&#45;&gt;2 -->
<g id="edge43" class="edge">
<title>1&#45;&gt;2</title>
<path fill="none" stroke="black" d="M974.98,-399.18C1182.99,-398.6 2524.81,-392.5 2582,-331.24 2653.37,-254.8 2434.35,-234.1 2344.04,-228.88"/>
<polygon fill="black" stroke="black" points="2344.13,-225.38 2333.95,-228.33 2343.74,-232.37 2344.13,-225.38"/>
<text text-anchor="middle" x="2614" y="-309.54" font-family="Times New Roman,serif" font-size="14.00">{c, d}</text>
</g>
<!-- 1&#45;&gt;2 -->
<g id="edge52" class="edge">
<title>1&#45;&gt;2</title>
<path fill="none" stroke="black" d="M974.76,-396.95C1033.98,-391.79 1180.6,-378.62 1303,-364.24 1681.97,-319.72 2139.5,-252.29 2270.42,-232.74"/>
<polygon fill="black" stroke="black" points="2271.3,-236.14 2280.67,-231.2 2270.27,-229.22 2271.3,-236.14"/>
<text text-anchor="middle" x="1845.5" y="-309.54" font-family="Times New Roman,serif" font-size="14.00">{c}</text>
</g>
<!-- 1&#45;&gt;4 -->
<g id="edge26" class="edge">
<title>1&#45;&gt;4</title>
<path fill="none" stroke="black" d="M920.86,-399.07C781.88,-398.08 153.08,-392.06 71,-364.24 34.45,-351.86 0,-352.84 0,-314.24 0,-314.24 0,-314.24 0,-138.24 0,-99.65 34.32,-100.24 71,-88.24 173.85,-54.61 1887.29,-49.83 2144.73,-49.3"/>
<polygon fill="black" stroke="black" points="2144.92,-52.8 2154.91,-49.28 2144.91,-45.8 2144.92,-52.8"/>
<text text-anchor="middle" x="24.5" y="-222.54" font-family="Times New Roman,serif" font-size="14.00">{a, b, e}</text>
</g>
<!-- 1&#45;&gt;4 -->
<g id="edge30" class="edge">
<title>1&#45;&gt;4</title>
<path fill="none" stroke="black" d="M921.04,-398.8C792.29,-396.59 243.16,-385.94 170,-364.24 127.98,-351.78 85,-358.07 85,-314.24 85,-314.24 85,-314.24 85,-138.24 85,-94.41 127.82,-100.17 170,-88.24 269.03,-60.24 1894.39,-50.71 2144.74,-49.4"/>
<polygon fill="black" stroke="black" points="2145,-52.9 2154.98,-49.35 2144.96,-45.9 2145,-52.9"/>
<text text-anchor="middle" x="116.5" y="-222.54" font-family="Times New Roman,serif" font-size="14.00">{a, c, d, e}</text>
</g>
<!-- 1&#45;&gt;4 -->
<g id="edge31" class="edge">
<title>1&#45;&gt;4</title>
<path fill="none" stroke="black" d="M920.81,-398.76C800.45,-396.51 318.71,-386.21 255,-364.24 218.51,-351.66 184,-352.84 184,-314.24 184,-314.24 184,-314.24 184,-138.24 184,-99.65 218.33,-100.27 255,-88.24 348.45,-57.59 1899.77,-50.32 2144.58,-49.36"/>
<polygon fill="black" stroke="black" points="2144.95,-52.86 2154.94,-49.32 2144.92,-45.86 2144.95,-52.86"/>
<text text-anchor="middle" x="208.5" y="-222.54" font-family="Times New Roman,serif" font-size="14.00">{b, c, e}</text>
</g>
<!-- 1&#45;&gt;4 -->
<g id="edge32" class="edge">
<title>1&#45;&gt;4</title>
<path fill="none" stroke="black" d="M920.85,-399.3C819.41,-399.27 463,-396.8 355,-364.24 312.67,-351.48 269,-358.45 269,-314.24 269,-314.24 269,-314.24 269,-138.24 269,-94.03 312.44,-100.21 355,-88.24 444.57,-63.07 1908.24,-51.23 2144.82,-49.47"/>
<polygon fill="black" stroke="black" points="2144.88,-52.97 2154.85,-49.4 2144.83,-45.97 2144.88,-52.97"/>
<text text-anchor="middle" x="301" y="-222.54" font-family="Times New Roman,serif" font-size="14.00">{b, c, d, e}</text>
</g>
<!-- 1&#45;&gt;4 -->
<g id="edge34" class="edge">
<title>1&#45;&gt;4</title>
<path fill="none" stroke="black" d="M920.97,-399.73C827.08,-401.05 515.82,-402.41 425,-364.24 394.24,-351.32 369,-347.61 369,-314.24 369,-314.24 369,-314.24 369,-138.24 369,-104.88 393.96,-100.48 425,-88.24 508.06,-55.49 1912.28,-50.01 2144.58,-49.33"/>
<polygon fill="black" stroke="black" points="2144.75,-52.83 2154.74,-49.3 2144.73,-45.83 2144.75,-52.83"/>
<text text-anchor="middle" x="386" y="-222.54" font-family="Times New Roman,serif" font-size="14.00">{a, e}</text>
</g>
<!-- 1&#45;&gt;4 -->
<g id="edge36" class="edge">
<title>1&#45;&gt;4</title>
<path fill="none" stroke="black" d="M920.79,-399.4C835.18,-399.54 572.37,-397.23 495,-364.24 464.31,-351.16 439,-347.61 439,-314.24 439,-314.24 439,-314.24 439,-138.24 439,-104.88 463.97,-100.49 495,-88.24 574.57,-56.83 1917.29,-50.25 2144.47,-49.36"/>
<polygon fill="black" stroke="black" points="2144.74,-52.86 2154.73,-49.32 2144.71,-45.86 2144.74,-52.86"/>
<text text-anchor="middle" x="456" y="-222.54" font-family="Times New Roman,serif" font-size="14.00">{c, e}</text>
</g>
<!-- 1&#45;&gt;4 -->
<g id="edge37" class="edge">
<title>1&#45;&gt;4</title>
<path fill="none" stroke="black" d="M920.87,-399.79C825.16,-400.99 509,-398.57 509,-314.24 509,-314.24 509,-314.24 509,-138.24 509,-99.28 543.97,-100.34 581,-88.24 658,-63.09 1925.58,-51.35 2144.82,-49.5"/>
<polygon fill="black" stroke="black" points="2145.05,-53 2155.02,-49.42 2144.99,-46 2145.05,-53"/>
<text text-anchor="middle" x="534" y="-222.54" font-family="Times New Roman,serif" font-size="14.00">{b, d, e}</text>
</g>
<!-- 1&#45;&gt;4 -->
<g id="edge38" class="edge">
<title>1&#45;&gt;4</title>
<path fill="none" stroke="black" d="M920.89,-398.52C838.23,-395.57 595,-381.22 595,-314.24 595,-314.24 595,-314.24 595,-138.24 595,-94.41 637.86,-100.31 680,-88.24 825.18,-46.67 1939.94,-48.43 2144.73,-49.11"/>
<polygon fill="black" stroke="black" points="2144.83,-52.62 2154.84,-49.15 2144.85,-45.62 2144.83,-52.62"/>
<text text-anchor="middle" x="626.5" y="-222.54" font-family="Times New Roman,serif" font-size="14.00">{a, b, c, e}</text>
</g>
<!-- 1&#45;&gt;4 -->
<g id="edge40" class="edge">
<title>1&#45;&gt;4</title>
<path fill="none" stroke="black" d="M921.3,-396.08C856.08,-387.61 694,-361.79 694,-314.24 694,-314.24 694,-314.24 694,-138.24 694,-88.55 745.8,-100.34 794,-88.24 928.76,-54.42 1949.66,-49.88 2144.81,-49.32"/>
<polygon fill="black" stroke="black" points="2145,-52.82 2154.99,-49.29 2144.98,-45.82 2145,-52.82"/>
<text text-anchor="middle" x="733" y="-222.54" font-family="Times New Roman,serif" font-size="14.00">{a, b, c, d, e}</text>
</g>
<!-- 1&#45;&gt;4 -->
<g id="edge41" class="edge">
<title>1&#45;&gt;4</title>
<path fill="none" stroke="black" d="M921.67,-395.39C881.11,-387.81 808,-366.85 808,-314.24 808,-314.24 808,-314.24 808,-138.24 808,-109.22 823.88,-100.89 850,-88.24 910.06,-59.17 1947.67,-50.78 2144.8,-49.45"/>
<polygon fill="black" stroke="black" points="2144.84,-52.94 2154.82,-49.38 2144.8,-45.95 2144.84,-52.94"/>
<text text-anchor="middle" x="818" y="-222.54" font-family="Times New Roman,serif" font-size="14.00">{e}</text>
</g>
<!-- 1&#45;&gt;4 -->
<g id="edge42" class="edge">
<title>1&#45;&gt;4</title>
<path fill="none" stroke="black" d="M926.37,-389.09C901.48,-375.73 864,-349.72 864,-314.24 864,-314.24 864,-314.24 864,-138.24 864,-100.01 897.78,-100.48 934,-88.24 1051.64,-48.5 1961.56,-48.69 2144.88,-49.14"/>
<polygon fill="black" stroke="black" points="2144.95,-52.64 2154.96,-49.16 2144.97,-45.64 2144.95,-52.64"/>
<text text-anchor="middle" x="888" y="-222.54" font-family="Times New Roman,serif" font-size="14.00">{a, c, e}</text>
</g>
<!-- 1&#45;&gt;4 -->
<g id="edge45" class="edge">
<title>1&#45;&gt;4</title>
<path fill="none" stroke="black" d="M948,-381.99C948,-364.81 948,-337.71 948,-314.24 948,-314.24 948,-314.24 948,-138.24 948,-94.03 991.51,-100.48 1034,-88.24 1143.1,-56.83 1969.57,-50.42 2144.52,-49.41"/>
<polygon fill="black" stroke="black" points="2144.66,-52.91 2154.64,-49.35 2144.63,-45.91 2144.66,-52.91"/>
<text text-anchor="middle" x="980" y="-222.54" font-family="Times New Roman,serif" font-size="14.00">{a, b, d, e}</text>
</g>
<!-- 1&#45;&gt;4 -->
<g id="edge46" class="edge">
<title>1&#45;&gt;4</title>
<path fill="none" stroke="black" d="M971.45,-391.18C1001,-379.34 1048,-354.23 1048,-314.24 1048,-314.24 1048,-314.24 1048,-138.24 1048,-104.54 1073.68,-100.69 1105,-88.24 1203.59,-49.07 1975.98,-48.73 2144.57,-49.13"/>
<polygon fill="black" stroke="black" points="2144.56,-52.63 2154.57,-49.16 2144.58,-45.63 2144.56,-52.63"/>
<text text-anchor="middle" x="1065.5" y="-222.54" font-family="Times New Roman,serif" font-size="14.00">{b, e}</text>
</g>
<!-- 1&#45;&gt;4 -->
<g id="edge48" class="edge">
<title>1&#45;&gt;4</title>
<path fill="none" stroke="black" d="M975.1,-397.86C1023.31,-393.8 1119,-377.73 1119,-314.24 1119,-314.24 1119,-314.24 1119,-138.24 1119,-113.59 1122.39,-101.76 1143,-88.24 1185.88,-60.12 1974.98,-51.14 2144.93,-49.52"/>
<polygon fill="black" stroke="black" points="2145.02,-53.02 2154.99,-49.43 2144.96,-46.02 2145.02,-53.02"/>
<text text-anchor="middle" x="1143.5" y="-222.54" font-family="Times New Roman,serif" font-size="14.00">{a, d, e}</text>
</g>
<!-- 1&#45;&gt;4 -->
<g id="edge51" class="edge">
<title>1&#45;&gt;4</title>
<path fill="none" stroke="black" d="M975.12,-400.04C1010.39,-399.73 1072.41,-394.44 1114,-364.24 1133.51,-350.07 1163.41,-279.44 1172,-244.24 1188.48,-176.78 1131.44,-136.89 1181,-88.24 1216.16,-53.73 1977.06,-49.76 2144.57,-49.3"/>
<polygon fill="black" stroke="black" points="2144.74,-52.8 2154.74,-49.28 2144.73,-45.8 2144.74,-52.8"/>
<text text-anchor="middle" x="1200.5" y="-222.54" font-family="Times New Roman,serif" font-size="14.00">{c, d, e}</text>
</g>
<!-- 1&#45;&gt;4 -->
<g id="edge54" class="edge">
<title>1&#45;&gt;4</title>
<path fill="none" stroke="black" d="M975.17,-399.95C1013.55,-399.74 1084.56,-394.77 1135,-364.24 1153.78,-352.88 1209.58,-300.63 1229,-244.24 1234.21,-229.11 1233.01,-223.73 1229,-208.24 1226.7,-199.38 1221.3,-199.1 1219,-190.24 1213.47,-168.9 1225.68,-127.77 1230,-121.24 1244.29,-99.65 1253.45,-96.46 1278,-88.24 1361.38,-60.35 1993.29,-51.35 2144.55,-49.59"/>
<polygon fill="black" stroke="black" points="2145.02,-53.09 2154.98,-49.47 2144.94,-46.09 2145.02,-53.09"/>
<text text-anchor="middle" x="1250.5" y="-222.54" font-family="Times New Roman,serif" font-size="14.00">{d, e}</text>
</g>
<!-- 5 -->
<g id="node6" class="node">
<title>5</title>
<ellipse fill="none" stroke="black" cx="2058" cy="-313.24" rx="27" ry="18"/>
<text text-anchor="middle" x="2058" y="-309.54" font-family="Times New Roman,serif" font-size="14.00">5</text>
</g>
<!-- 1&#45;&gt;5 -->
<g id="edge27" class="edge">
<title>1&#45;&gt;5</title>
<path fill="none" stroke="black" d="M975.42,-399.09C1123.35,-398.18 1823.15,-392.39 1915,-364.24 1927.03,-360.56 1927.53,-354.4 1939,-349.24 1966.16,-337.04 1998.69,-327.81 2022.87,-321.9"/>
<polygon fill="black" stroke="black" points="2023.76,-325.29 2032.68,-319.57 2022.14,-318.47 2023.76,-325.29"/>
<text text-anchor="middle" x="1957" y="-353.04" font-family="Times New Roman,serif" font-size="14.00">{b, c}</text>
</g>
<!-- 1&#45;&gt;5 -->
<g id="edge39" class="edge">
<title>1&#45;&gt;5</title>
<path fill="none" stroke="black" d="M975.1,-399.19C1127.78,-398.76 1877.29,-395.11 1975,-364.24 1986.64,-360.57 1987.61,-355.65 1998,-349.24 2008.14,-342.99 2019.38,-336.35 2029.37,-330.55"/>
<polygon fill="black" stroke="black" points="2031.21,-333.53 2038.13,-325.5 2027.71,-327.47 2031.21,-333.53"/>
<text text-anchor="middle" x="2016.5" y="-353.04" font-family="Times New Roman,serif" font-size="14.00">{b, d}</text>
</g>
<!-- 1&#45;&gt;5 -->
<g id="edge50" class="edge">
<title>1&#45;&gt;5</title>
<path fill="none" stroke="black" d="M974.98,-399.17C1138.31,-398.64 1989.5,-394.44 2035,-364.24 2043.1,-358.87 2048.39,-349.87 2051.83,-340.98"/>
<polygon fill="black" stroke="black" points="2055.25,-341.77 2054.98,-331.18 2048.59,-339.63 2055.25,-341.77"/>
<text text-anchor="middle" x="2072.5" y="-353.04" font-family="Times New Roman,serif" font-size="14.00">{b, c, d}</text>
</g>
<!-- 1&#45;&gt;5 -->
<g id="edge55" class="edge">
<title>1&#45;&gt;5</title>
<path fill="none" stroke="black" d="M975.09,-399.37C1078.7,-399.57 1459.61,-397.84 1771,-364.24 1862.46,-354.37 1968.82,-333.29 2022.75,-321.91"/>
<polygon fill="black" stroke="black" points="2023.76,-325.27 2032.82,-319.77 2022.31,-318.42 2023.76,-325.27"/>
<text text-anchor="middle" x="1885" y="-353.04" font-family="Times New Roman,serif" font-size="14.00">{b}</text>
</g>
<!-- 2&#45;&gt;0 -->
<g id="edge61" class="edge">
<title>2&#45;&gt;0</title>
<path fill="none" stroke="black" d="M2334.17,-225.52C2432.42,-226.21 2768.7,-225.86 2869,-190.24 2874.05,-188.45 2895.44,-172.95 2913.26,-159.68"/>
<polygon fill="black" stroke="black" points="2915.72,-162.21 2921.63,-153.41 2911.53,-156.6 2915.72,-162.21"/>
<text text-anchor="middle" x="2902" y="-179.04" font-family="Times New Roman,serif" font-size="14.00">{d}</text>
</g>
<!-- 2&#45;&gt;0 -->
<g id="edge68" class="edge">
<title>2&#45;&gt;0</title>
<path fill="none" stroke="black" d="M2334.06,-225.26C2445.48,-225.12 2865.13,-222.43 2914,-190.24 2922.33,-184.75 2928.01,-175.61 2931.81,-166.63"/>
<polygon fill="black" stroke="black" points="2935.13,-167.73 2935.24,-157.13 2928.55,-165.35 2935.13,-167.73"/>
<text text-anchor="middle" x="2945.5" y="-179.04" font-family="Times New Roman,serif" font-size="14.00">{b, d}</text>
</g>
<!-- 2&#45;&gt;0 -->
<g id="edge75" class="edge">
<title>2&#45;&gt;0</title>
<path fill="none" stroke="black" d="M2334.15,-224.78C2416.54,-223.1 2662.7,-215.99 2738,-190.24 2749.55,-186.29 2749.55,-179.48 2761,-175.24 2818.6,-153.94 2838.68,-173.14 2898,-157.24 2901.38,-156.34 2904.85,-155.22 2908.27,-153.99"/>
<polygon fill="black" stroke="black" points="2909.62,-157.22 2917.67,-150.33 2907.08,-150.7 2909.62,-157.22"/>
<text text-anchor="middle" x="2778.5" y="-179.04" font-family="Times New Roman,serif" font-size="14.00">{a, d}</text>
</g>
<!-- 2&#45;&gt;0 -->
<g id="edge81" class="edge">
<title>2&#45;&gt;0</title>
<path fill="none" stroke="black" d="M2334.05,-225.38C2423.76,-225.52 2710.69,-223.32 2796,-190.24 2806.03,-186.35 2805.27,-179.83 2815,-175.24 2849.14,-159.13 2861.98,-168.52 2898,-157.24 2901.16,-156.25 2904.42,-155.12 2907.65,-153.91"/>
<polygon fill="black" stroke="black" points="2909.13,-157.09 2917.14,-150.16 2906.55,-150.58 2909.13,-157.09"/>
<text text-anchor="middle" x="2840" y="-179.04" font-family="Times New Roman,serif" font-size="14.00">{a, b, d}</text>
</g>
<!-- 2&#45;&gt;2 -->
<g id="edge65" class="edge">
<title>2&#45;&gt;2</title>
<path fill="none" stroke="black" d="M2334.24,-227.74C2344.02,-227.77 2352,-227.27 2352,-226.24 2352,-225.61 2349.04,-225.18 2344.51,-224.95"/>
<polygon fill="black" stroke="black" points="2344.31,-221.44 2334.24,-224.74 2344.17,-228.44 2344.31,-221.44"/>
<text text-anchor="middle" x="2369" y="-222.54" font-family="Times New Roman,serif" font-size="14.00">{a, c}</text>
</g>
<!-- 2&#45;&gt;2 -->
<g id="edge66" class="edge">
<title>2&#45;&gt;2</title>
<path fill="none" stroke="black" d="M2333.81,-228.78C2357.96,-229.87 2386,-229.02 2386,-226.24 2386,-223.84 2365.1,-222.88 2343.85,-223.36"/>
<polygon fill="black" stroke="black" points="2343.69,-219.87 2333.81,-223.7 2343.92,-226.86 2343.69,-219.87"/>
<text text-anchor="middle" x="2404" y="-222.54" font-family="Times New Roman,serif" font-size="14.00">{b, c}</text>
</g>
<!-- 2&#45;&gt;2 -->
<g id="edge69" class="edge">
<title>2&#45;&gt;2</title>
<path fill="none" stroke="black" d="M2333.84,-229.45C2370.15,-231.92 2422,-230.85 2422,-226.24 2422,-222.05 2379.05,-220.79 2343.96,-222.45"/>
<polygon fill="black" stroke="black" points="2343.62,-218.97 2333.84,-223.03 2344.02,-225.95 2343.62,-218.97"/>
<text text-anchor="middle" x="2454" y="-222.54" font-family="Times New Roman,serif" font-size="14.00">{a, b, c, d}</text>
</g>
<!-- 2&#45;&gt;2 -->
<g id="edge72" class="edge">
<title>2&#45;&gt;2</title>
<path fill="none" stroke="black" d="M2333.85,-229.75C2387.29,-233.99 2486,-232.82 2486,-226.24 2486,-220.06 2398.88,-218.66 2344.02,-222.02"/>
<polygon fill="black" stroke="black" points="2343.58,-218.55 2333.85,-222.73 2344.07,-225.53 2343.58,-218.55"/>
<text text-anchor="middle" x="2504" y="-222.54" font-family="Times New Roman,serif" font-size="14.00">{c, d}</text>
</g>
<!-- 2&#45;&gt;2 -->
<g id="edge76" class="edge">
<title>2&#45;&gt;2</title>
<path fill="none" stroke="black" d="M2333.69,-230.16C2396.12,-236 2522,-234.7 2522,-226.24 2522,-218.21 2408.58,-216.63 2343.67,-221.49"/>
<polygon fill="black" stroke="black" points="2343.36,-218.01 2333.69,-222.33 2343.95,-224.98 2343.36,-218.01"/>
<text text-anchor="middle" x="2546.5" y="-222.54" font-family="Times New Roman,serif" font-size="14.00">{a, b, c}</text>
</g>
<!-- 2&#45;&gt;2 -->
<g id="edge77" class="edge">
<title>2&#45;&gt;2</title>
<path fill="none" stroke="black" d="M2333.71,-230.44C2407.05,-238.02 2571,-236.62 2571,-226.24 2571,-216.33 2421.45,-214.6 2344.12,-221.08"/>
<polygon fill="black" stroke="black" points="2343.34,-217.63 2333.71,-222.04 2343.99,-224.6 2343.34,-217.63"/>
<text text-anchor="middle" x="2595.5" y="-222.54" font-family="Times New Roman,serif" font-size="14.00">{a, c, d}</text>
</g>
<!-- 2&#45;&gt;2 -->
<g id="edge80" class="edge">
<title>2&#45;&gt;2</title>
<path fill="none" stroke="black" d="M2333.41,-230.65C2416.71,-240.04 2620,-238.57 2620,-226.24 2620,-214.38 2431.9,-212.57 2343.44,-220.81"/>
<polygon fill="black" stroke="black" points="2343.01,-217.33 2333.41,-221.83 2343.72,-224.3 2343.01,-217.33"/>
<text text-anchor="middle" x="2630.5" y="-222.54" font-family="Times New Roman,serif" font-size="14.00">{c}</text>
</g>
<!-- 2&#45;&gt;2 -->
<g id="edge83" class="edge">
<title>2&#45;&gt;2</title>
<path fill="none" stroke="black" d="M2333.24,-230.95C2421.76,-242.05 2641,-240.48 2641,-226.24 2641,-212.52 2437.32,-210.57 2343.33,-220.38"/>
<polygon fill="black" stroke="black" points="2342.78,-216.92 2333.24,-221.53 2343.57,-223.87 2342.78,-216.92"/>
<text text-anchor="middle" x="2666.5" y="-222.54" font-family="Times New Roman,serif" font-size="14.00">{b, c, d}</text>
</g>
<!-- 2&#45;&gt;4 -->
<g id="edge57" class="edge">
<title>2&#45;&gt;4</title>
<path fill="none" stroke="black" d="M2334.08,-223.94C2424.16,-219.59 2721.94,-204.96 2968,-190.24 3078.05,-183.66 3387.68,-237.75 3463,-157.24 3473.93,-145.56 3470.94,-135.13 3463,-121.24 3448.67,-96.16 3434.75,-96.28 3407,-88.24 3289.11,-54.07 2391.71,-49.82 2209.3,-49.31"/>
<polygon fill="black" stroke="black" points="2209.03,-45.81 2199.02,-49.28 2209.01,-52.81 2209.03,-45.81"/>
<text text-anchor="middle" x="3494.5" y="-135.54" font-family="Times New Roman,serif" font-size="14.00">{a, b, e}</text>
</g>
<!-- 2&#45;&gt;4 -->
<g id="edge58" class="edge">
<title>2&#45;&gt;4</title>
<path fill="none" stroke="black" d="M2280.07,-224.48C2198.32,-221.94 1953.98,-212.63 1878,-190.24 1864.46,-186.25 1863.51,-179.35 1850,-175.24 1811.33,-163.47 1696.13,-187.2 1669,-157.24 1615.87,-98.56 1733.62,-89.95 1740,-88.24 1816.54,-67.71 2057.35,-54.79 2144.83,-50.67"/>
<polygon fill="black" stroke="black" points="2145.13,-54.16 2154.95,-50.2 2144.8,-47.17 2145.13,-54.16"/>
<text text-anchor="middle" x="1700.5" y="-135.54" font-family="Times New Roman,serif" font-size="14.00">{a, c, d, e}</text>
</g>
<!-- 2&#45;&gt;4 -->
<g id="edge59" class="edge">
<title>2&#45;&gt;4</title>
<path fill="none" stroke="black" d="M2279.98,-224.32C2201.4,-221.42 1974.02,-211.37 1903,-190.24 1889.47,-186.22 1888.36,-179.81 1875,-175.24 1829.37,-159.65 1799.14,-194.06 1768,-157.24 1742.31,-126.87 1787.21,-100.66 1825,-88.24 1938.19,-51.04 2081.72,-47.81 2144.8,-48.44"/>
<polygon fill="black" stroke="black" points="2144.86,-51.94 2154.91,-48.58 2144.96,-44.94 2144.86,-51.94"/>
<text text-anchor="middle" x="1792.5" y="-135.54" font-family="Times New Roman,serif" font-size="14.00">{b, c, e}</text>
</g>
<!-- 2&#45;&gt;4 -->
<g id="edge60" class="edge">
<title>2&#45;&gt;4</title>
<path fill="none" stroke="black" d="M2280.05,-224.15C2204.89,-220.87 1994.13,-210.12 1928,-190.24 1914.48,-186.18 1912.84,-181.11 1900,-175.24 1879.66,-165.94 1865.68,-175.67 1853,-157.24 1781.9,-53.87 2049.68,-47.6 2144.72,-48.53"/>
<polygon fill="black" stroke="black" points="2144.86,-52.04 2154.91,-48.67 2144.96,-45.04 2144.86,-52.04"/>
<text text-anchor="middle" x="1885" y="-135.54" font-family="Times New Roman,serif" font-size="14.00">{b, c, d, e}</text>
</g>
<!-- 2&#45;&gt;4 -->
<g id="edge62" class="edge">
<title>2&#45;&gt;4</title>
<path fill="none" stroke="black" d="M2279.98,-224.11C2214.02,-221.03 2046.45,-211.32 1995,-190.24 1973.03,-181.24 1963.38,-178.59 1953,-157.24 1915.12,-79.31 2074.31,-57.19 2144.85,-51.27"/>
<polygon fill="black" stroke="black" points="2145.28,-54.75 2154.98,-50.49 2144.74,-47.77 2145.28,-54.75"/>
<text text-anchor="middle" x="1970" y="-135.54" font-family="Times New Roman,serif" font-size="14.00">{a, e}</text>
</g>
<!-- 2&#45;&gt;4 -->
<g id="edge63" class="edge">
<title>2&#45;&gt;4</title>
<path fill="none" stroke="black" d="M2280.01,-225.8C2233.97,-225.79 2138.16,-221.59 2065,-190.24 2043.18,-180.89 2033.38,-178.59 2023,-157.24 1995.97,-101.62 2093.2,-69.19 2145.64,-56.08"/>
<polygon fill="black" stroke="black" points="2146.58,-59.45 2155.49,-53.71 2144.94,-52.65 2146.58,-59.45"/>
<text text-anchor="middle" x="2040" y="-135.54" font-family="Times New Roman,serif" font-size="14.00">{c, e}</text>
</g>
<!-- 2&#45;&gt;4 -->
<g id="edge64" class="edge">
<title>2&#45;&gt;4</title>
<path fill="none" stroke="black" d="M2280.81,-221.3C2228.03,-212.7 2112.26,-190.35 2093,-157.24 2072.37,-121.77 2117.84,-84.99 2149.59,-64.82"/>
<polygon fill="black" stroke="black" points="2151.42,-67.8 2158.11,-59.59 2147.76,-61.84 2151.42,-67.8"/>
<text text-anchor="middle" x="2118" y="-135.54" font-family="Times New Roman,serif" font-size="14.00">{b, d, e}</text>
</g>
<!-- 2&#45;&gt;4 -->
<g id="edge67" class="edge">
<title>2&#45;&gt;4</title>
<path fill="none" stroke="black" d="M2281.48,-219.86C2251.06,-211.94 2201.51,-193.91 2179,-157.24 2164.79,-134.1 2166.02,-102.58 2169.77,-79.56"/>
<polygon fill="black" stroke="black" points="2173.22,-80.12 2171.62,-69.65 2166.34,-78.84 2173.22,-80.12"/>
<text text-anchor="middle" x="2218" y="-135.54" font-family="Times New Roman,serif" font-size="14.00">{a, b, c, d, e}</text>
</g>
<!-- 2&#45;&gt;4 -->
<g id="edge70" class="edge">
<title>2&#45;&gt;4</title>
<path fill="none" stroke="black" d="M2303.24,-208.36C2297.28,-185.47 2283.54,-144.76 2257,-121.24 2238.38,-104.74 2222.75,-119.59 2204,-103.24 2196.58,-96.77 2190.96,-87.76 2186.83,-78.97"/>
<polygon fill="black" stroke="black" points="2190.01,-77.5 2182.92,-69.63 2183.56,-80.2 2190.01,-77.5"/>
<text text-anchor="middle" x="2293" y="-135.54" font-family="Times New Roman,serif" font-size="14.00">{e}</text>
</g>
<!-- 2&#45;&gt;4 -->
<g id="edge71" class="edge">
<title>2&#45;&gt;4</title>
<path fill="none" stroke="black" d="M2312.86,-208.35C2319.51,-185.83 2327.01,-145.93 2307,-121.24 2284.59,-93.61 2259.95,-120.78 2229,-103.24 2216.4,-96.1 2204.93,-84.97 2195.99,-74.66"/>
<polygon fill="black" stroke="black" points="2198.45,-72.15 2189.39,-66.67 2193.05,-76.61 2198.45,-72.15"/>
<text text-anchor="middle" x="2343" y="-135.54" font-family="Times New Roman,serif" font-size="14.00">{a, c, e}</text>
</g>
<!-- 2&#45;&gt;4 -->
<g id="edge73" class="edge">
<title>2&#45;&gt;4</title>
<path fill="none" stroke="black" d="M2324.93,-212.55C2351.74,-192.07 2396.54,-151.01 2371,-121.24 2353.87,-101.28 2278.41,-113.05 2254,-103.24 2243.13,-98.87 2220.25,-82.43 2202.24,-68.83"/>
<polygon fill="black" stroke="black" points="2203.94,-65.72 2193.86,-62.44 2199.69,-71.29 2203.94,-65.72"/>
<text text-anchor="middle" x="2410" y="-135.54" font-family="Times New Roman,serif" font-size="14.00">{a, b, d, e}</text>
</g>
<!-- 2&#45;&gt;4 -->
<g id="edge74" class="edge">
<title>2&#45;&gt;4</title>
<path fill="none" stroke="black" d="M2331.69,-218.37C2381.45,-203.38 2485.77,-165.53 2446,-121.24 2421.06,-93.47 2314.66,-114.26 2279,-103.24 2265.51,-99.08 2263.47,-94.87 2251,-88.24 2235.89,-80.21 2219.02,-71.32 2205.2,-64.05"/>
<polygon fill="black" stroke="black" points="2206.66,-60.86 2196.18,-59.31 2203.41,-67.06 2206.66,-60.86"/>
<text text-anchor="middle" x="2471.5" y="-135.54" font-family="Times New Roman,serif" font-size="14.00">{b, e}</text>
</g>
<!-- 2&#45;&gt;4 -->
<g id="edge78" class="edge">
<title>2&#45;&gt;4</title>
<path fill="none" stroke="black" d="M2333.19,-221.02C2395.52,-209.97 2543.77,-177.08 2493,-121.24 2464.62,-90.03 2344.39,-115.44 2304,-103.24 2290.49,-99.16 2288.81,-94.17 2276,-88.24 2253.34,-77.75 2227.01,-67.47 2207.2,-60.1"/>
<polygon fill="black" stroke="black" points="2208.37,-56.79 2197.77,-56.62 2205.95,-63.36 2208.37,-56.79"/>
<text text-anchor="middle" x="2527.5" y="-135.54" font-family="Times New Roman,serif" font-size="14.00">{a, d, e}</text>
</g>
<!-- 2&#45;&gt;4 -->
<g id="edge79" class="edge">
<title>2&#45;&gt;4</title>
<path fill="none" stroke="black" d="M2333.87,-223.44C2410.93,-217.36 2623,-193.76 2556,-121.24 2538.83,-102.66 2353.28,-110.37 2329,-103.24 2315.45,-99.27 2314.01,-93.72 2301,-88.24 2270.29,-75.32 2233.75,-64.33 2208.33,-57.34"/>
<polygon fill="black" stroke="black" points="2209.06,-53.91 2198.5,-54.69 2207.24,-60.67 2209.06,-53.91"/>
<text text-anchor="middle" x="2592.5" y="-135.54" font-family="Times New Roman,serif" font-size="14.00">{c, d, e}</text>
</g>
<!-- 2&#45;&gt;4 -->
<g id="edge82" class="edge">
<title>2&#45;&gt;4</title>
<path fill="none" stroke="black" d="M2334.12,-225.05C2424.58,-223.57 2705.61,-211.75 2621,-121.24 2600.69,-99.52 2382.58,-111.45 2354,-103.24 2340.43,-99.35 2339.14,-93.4 2326,-88.24 2286.81,-72.87 2239.47,-61.65 2208.83,-55.3"/>
<polygon fill="black" stroke="black" points="2209.22,-51.8 2198.72,-53.25 2207.83,-58.67 2209.22,-51.8"/>
<text text-anchor="middle" x="2653.5" y="-135.54" font-family="Times New Roman,serif" font-size="14.00">{d, e}</text>
</g>
<!-- 2&#45;&gt;4 -->
<g id="edge84" class="edge">
<title>2&#45;&gt;4</title>
<path fill="none" stroke="black" d="M2334.14,-223.98C2401.25,-220.58 2573.43,-210.14 2627,-190.24 2662.02,-177.24 2700.6,-148.45 2675,-121.24 2652.42,-97.25 2410.7,-112.23 2379,-103.24 2365.42,-99.39 2364.23,-93.16 2351,-88.24 2303.01,-70.39 2244.4,-59.33 2208.93,-53.73"/>
<polygon fill="black" stroke="black" points="2209.11,-50.22 2198.7,-52.17 2208.06,-57.14 2209.11,-50.22"/>
<text text-anchor="middle" x="2714.5" y="-135.54" font-family="Times New Roman,serif" font-size="14.00">{a, b, c, e}</text>
</g>
<!-- 4&#45;&gt;4 -->
<g id="edge85" class="edge">
<title>4&#45;&gt;4</title>
<path fill="none" stroke="black" d="M2199.21,-49.72C2208.8,-49.85 2217,-49.35 2217,-48.24 2217,-47.57 2213.95,-47.12 2209.4,-46.9"/>
<polygon fill="black" stroke="black" points="2209.26,-43.4 2199.21,-46.76 2209.16,-50.4 2209.26,-43.4"/>
<text text-anchor="middle" x="2241.5" y="-44.54" font-family="Times New Roman,serif" font-size="14.00">{a, b, e}</text>
</g>
<!-- 4&#45;&gt;4 -->
<g id="edge86" class="edge">
<title>4&#45;&gt;4</title>
<path fill="none" stroke="black" d="M2199.06,-50.49C2226.81,-51.99 2266,-51.24 2266,-48.24 2266,-45.59 2235.46,-44.7 2209.21,-45.56"/>
<polygon fill="black" stroke="black" points="2208.9,-42.07 2199.06,-45.99 2209.2,-49.06 2208.9,-42.07"/>
<text text-anchor="middle" x="2290.5" y="-44.54" font-family="Times New Roman,serif" font-size="14.00">{a, b, c}</text>
</g>
<!-- 4&#45;&gt;4 -->
<g id="edge87" class="edge">
<title>4&#45;&gt;4</title>
<path fill="none" stroke="black" d="M2198.84,-50.96C2240.26,-54.04 2315,-53.13 2315,-48.24 2315,-43.73 2251.22,-42.61 2208.84,-44.89"/>
<polygon fill="black" stroke="black" points="2208.6,-41.4 2198.84,-45.52 2209.05,-48.38 2208.6,-41.4"/>
<text text-anchor="middle" x="2339.5" y="-44.54" font-family="Times New Roman,serif" font-size="14.00">{a, c, d}</text>
</g>
<!-- 4&#45;&gt;4 -->
<g id="edge88" class="edge">
<title>4&#45;&gt;4</title>
<path fill="none" stroke="black" d="M2198.99,-51.34C2252.15,-56.06 2364,-55.02 2364,-48.24 2364,-41.87 2265.28,-40.57 2209.25,-44.35"/>
<polygon fill="black" stroke="black" points="2208.69,-40.88 2198.99,-45.14 2209.23,-47.86 2208.69,-40.88"/>
<text text-anchor="middle" x="2395.5" y="-44.54" font-family="Times New Roman,serif" font-size="14.00">{a, c, d, e}</text>
</g>
<!-- 4&#45;&gt;4 -->
<g id="edge89" class="edge">
<title>4&#45;&gt;4</title>
<path fill="none" stroke="black" d="M2198.9,-51.57C2264.9,-58.08 2427,-56.97 2427,-48.24 2427,-39.94 2280.35,-38.53 2209.23,-44.02"/>
<polygon fill="black" stroke="black" points="2208.56,-40.56 2198.9,-44.92 2209.17,-47.54 2208.56,-40.56"/>
<text text-anchor="middle" x="2451.5" y="-44.54" font-family="Times New Roman,serif" font-size="14.00">{b, c, e}</text>
</g>
<!-- 4&#45;&gt;4 -->
<g id="edge90" class="edge">
<title>4&#45;&gt;4</title>
<path fill="none" stroke="black" d="M2198.72,-51.8C2274.09,-60.09 2476,-58.91 2476,-48.24 2476,-38.03 2290.69,-36.51 2208.86,-43.69"/>
<polygon fill="black" stroke="black" points="2208.33,-40.22 2198.72,-44.68 2209.02,-47.19 2208.33,-40.22"/>
<text text-anchor="middle" x="2508" y="-44.54" font-family="Times New Roman,serif" font-size="14.00">{b, c, d, e}</text>
</g>
<!-- 4&#45;&gt;4 -->
<g id="edge91" class="edge">
<title>4&#45;&gt;4</title>
<path fill="none" stroke="black" d="M2198.76,-51.98C2285.16,-62.11 2540,-60.86 2540,-48.24 2540,-36.08 2303.24,-34.48 2208.76,-43.45"/>
<polygon fill="black" stroke="black" points="2208.34,-39.98 2198.76,-44.51 2209.07,-46.94 2208.34,-39.98"/>
<text text-anchor="middle" x="2557" y="-44.54" font-family="Times New Roman,serif" font-size="14.00">{a, e}</text>
</g>
<!-- 4&#45;&gt;4 -->
<g id="edge92" class="edge">
<title>4&#45;&gt;4</title>
<path fill="none" stroke="black" d="M2198.69,-52.21C2291.58,-64.11 2574,-62.79 2574,-48.24 2574,-34.19 2310.55,-32.48 2208.86,-43.1"/>
<polygon fill="black" stroke="black" points="2208.22,-39.65 2198.69,-44.28 2209.03,-46.61 2208.22,-39.65"/>
<text text-anchor="middle" x="2591" y="-44.54" font-family="Times New Roman,serif" font-size="14.00">{c, e}</text>
</g>
<!-- 4&#45;&gt;4 -->
<g id="edge93" class="edge">
<title>4&#45;&gt;4</title>
<path fill="none" stroke="black" d="M2198.89,-52.44C2298.48,-66.11 2608,-64.71 2608,-48.24 2608,-32.29 2317.52,-30.47 2208.83,-42.81"/>
<polygon fill="black" stroke="black" points="2208.38,-39.33 2198.89,-44.04 2209.25,-46.28 2208.38,-39.33"/>
<text text-anchor="middle" x="2615" y="-44.54" font-family="Times New Roman,serif" font-size="14.00">{}</text>
</g>
<!-- 4&#45;&gt;4 -->
<g id="edge94" class="edge">
<title>4&#45;&gt;4</title>
<path fill="none" stroke="black" d="M2198.87,-52.66C2303.01,-68.11 2626,-66.64 2626,-48.24 2626,-30.4 2322.27,-28.48 2208.91,-42.47"/>
<polygon fill="black" stroke="black" points="2208.31,-39.02 2198.87,-43.82 2209.24,-45.95 2208.31,-39.02"/>
<text text-anchor="middle" x="2651" y="-44.54" font-family="Times New Roman,serif" font-size="14.00">{b, d, e}</text>
</g>
<!-- 4&#45;&gt;4 -->
<g id="edge95" class="edge">
<title>4&#45;&gt;4</title>
<path fill="none" stroke="black" d="M2198.83,-52.78C2311.17,-70.12 2676,-68.61 2676,-48.24 2676,-28.45 2331.54,-26.46 2208.97,-42.28"/>
<polygon fill="black" stroke="black" points="2208.25,-38.85 2198.83,-43.71 2209.22,-45.78 2208.25,-38.85"/>
<text text-anchor="middle" x="2701" y="-44.54" font-family="Times New Roman,serif" font-size="14.00">{a, b, d}</text>
</g>
<!-- 4&#45;&gt;4 -->
<g id="edge96" class="edge">
<title>4&#45;&gt;4</title>
<path fill="none" stroke="black" d="M2198.84,-52.89C2319.2,-72.13 2726,-70.58 2726,-48.24 2726,-26.5 2340.37,-24.45 2208.95,-42.12"/>
<polygon fill="black" stroke="black" points="2208.23,-38.69 2198.84,-43.6 2209.25,-45.61 2208.23,-38.69"/>
<text text-anchor="middle" x="2765" y="-44.54" font-family="Times New Roman,serif" font-size="14.00">{a, b, c, d, e}</text>
</g>
<!-- 4&#45;&gt;4 -->
<g id="edge97" class="edge">
<title>4&#45;&gt;4</title>
<path fill="none" stroke="black" d="M2198.51,-52.88C2328.92,-74.14 2804,-72.59 2804,-48.24 2804,-24.49 2351.83,-22.44 2208.67,-42.09"/>
<polygon fill="black" stroke="black" points="2207.88,-38.67 2198.51,-43.61 2208.92,-45.59 2207.88,-38.67"/>
<text text-anchor="middle" x="2814" y="-44.54" font-family="Times New Roman,serif" font-size="14.00">{e}</text>
</g>
<!-- 4&#45;&gt;4 -->
<g id="edge98" class="edge">
<title>4&#45;&gt;4</title>
<path fill="none" stroke="black" d="M2198.89,-53.09C2334.6,-76.14 2824,-74.52 2824,-48.24 2824,-22.58 2357.27,-20.44 2209.01,-41.81"/>
<polygon fill="black" stroke="black" points="2208.23,-38.39 2198.89,-43.39 2209.31,-45.31 2208.23,-38.39"/>
<text text-anchor="middle" x="2848" y="-44.54" font-family="Times New Roman,serif" font-size="14.00">{a, c, e}</text>
</g>
<!-- 4&#45;&gt;4 -->
<g id="edge99" class="edge">
<title>4&#45;&gt;4</title>
<path fill="none" stroke="black" d="M2198.6,-53.13C2341.22,-78.14 2872,-76.51 2872,-48.24 2872,-20.61 2364.8,-18.43 2208.78,-41.71"/>
<polygon fill="black" stroke="black" points="2207.91,-38.31 2198.6,-43.36 2209.03,-45.22 2207.91,-38.31"/>
<text text-anchor="middle" x="2897.5" y="-44.54" font-family="Times New Roman,serif" font-size="14.00">{b, c, d}</text>
</g>
<!-- 4&#45;&gt;4 -->
<g id="edge100" class="edge">
<title>4&#45;&gt;4</title>
<path fill="none" stroke="black" d="M2198.6,-53.21C2348.7,-80.15 2923,-78.49 2923,-48.24 2923,-18.64 2373.11,-16.42 2208.85,-41.58"/>
<polygon fill="black" stroke="black" points="2207.89,-38.19 2198.6,-43.28 2209.04,-45.1 2207.89,-38.19"/>
<text text-anchor="middle" x="2955" y="-44.54" font-family="Times New Roman,serif" font-size="14.00">{a, b, d, e}</text>
</g>
<!-- 4&#45;&gt;4 -->
<g id="edge101" class="edge">
<title>4&#45;&gt;4</title>
<path fill="none" stroke="black" d="M2198.55,-53.25C2356.99,-82.15 2987,-80.48 2987,-48.24 2987,-16.65 2381.96,-14.41 2208.62,-41.54"/>
<polygon fill="black" stroke="black" points="2207.83,-38.12 2198.55,-43.24 2208.99,-45.02 2207.83,-38.12"/>
<text text-anchor="middle" x="2997.5" y="-44.54" font-family="Times New Roman,serif" font-size="14.00">{c}</text>
</g>
<!-- 4&#45;&gt;4 -->
<g id="edge102" class="edge">
<title>4&#45;&gt;4</title>
<path fill="none" stroke="black" d="M2198.54,-53.35C2361.85,-84.15 3008,-82.45 3008,-48.24 3008,-14.7 2386.84,-12.41 2208.65,-41.36"/>
<polygon fill="black" stroke="black" points="2207.79,-37.96 2198.54,-43.13 2208.99,-44.86 2207.79,-37.96"/>
<text text-anchor="middle" x="3025.5" y="-44.54" font-family="Times New Roman,serif" font-size="14.00">{b, e}</text>
</g>
<!-- 4&#45;&gt;4 -->
<g id="edge103" class="edge">
<title>4&#45;&gt;4</title>
<path fill="none" stroke="black" d="M2198.55,-53.44C2367.9,-86.16 3043,-84.42 3043,-48.24 3043,-12.73 2392.72,-10.41 2208.49,-41.26"/>
<polygon fill="black" stroke="black" points="2207.77,-37.84 2198.55,-43.05 2209.01,-44.72 2207.77,-37.84"/>
<text text-anchor="middle" x="3060" y="-44.54" font-family="Times New Roman,serif" font-size="14.00">{a, c}</text>
</g>
<!-- 4&#45;&gt;4 -->
<g id="edge104" class="edge">
<title>4&#45;&gt;4</title>
<path fill="none" stroke="black" d="M2198.47,-53.5C2373.63,-88.16 3077,-86.41 3077,-48.24 3077,-10.77 2398.82,-8.4 2208.48,-41.14"/>
<polygon fill="black" stroke="black" points="2207.67,-37.73 2198.47,-42.99 2208.94,-44.62 2207.67,-37.73"/>
<text text-anchor="middle" x="3095" y="-44.54" font-family="Times New Roman,serif" font-size="14.00">{b, c}</text>
</g>
<!-- 4&#45;&gt;4 -->
<g id="edge105" class="edge">
<title>4&#45;&gt;4</title>
<path fill="none" stroke="black" d="M2198.61,-53.59C2380.08,-90.16 3113,-88.38 3113,-48.24 3113,-8.81 2405.62,-6.4 2208.68,-41"/>
<polygon fill="black" stroke="black" points="2207.79,-37.61 2198.61,-42.89 2209.08,-44.49 2207.79,-37.61"/>
<text text-anchor="middle" x="3130.5" y="-44.54" font-family="Times New Roman,serif" font-size="14.00">{a, b}</text>
</g>
<!-- 4&#45;&gt;4 -->
<g id="edge106" class="edge">
<title>4&#45;&gt;4</title>
<path fill="none" stroke="black" d="M2198.39,-53.61C2385.49,-92.16 3148,-90.37 3148,-48.24 3148,-6.83 2411.33,-4.39 2208.48,-40.93"/>
<polygon fill="black" stroke="black" points="2207.55,-37.55 2198.39,-42.87 2208.87,-44.42 2207.55,-37.55"/>
<text text-anchor="middle" x="3159" y="-44.54" font-family="Times New Roman,serif" font-size="14.00">{d}</text>
</g>
<!-- 4&#45;&gt;4 -->
<g id="edge107" class="edge">
<title>4&#45;&gt;4</title>
<path fill="none" stroke="black" d="M2198.32,-53.67C2390.44,-94.16 3170,-92.36 3170,-48.24 3170,-4.86 2416.11,-2.39 2208.37,-40.83"/>
<polygon fill="black" stroke="black" points="2207.45,-37.45 2198.32,-42.81 2208.81,-44.31 2207.45,-37.45"/>
<text text-anchor="middle" x="3187.5" y="-44.54" font-family="Times New Roman,serif" font-size="14.00">{a, d}</text>
</g>
<!-- 4&#45;&gt;4 -->
<g id="edge108" class="edge">
<title>4&#45;&gt;4</title>
<path fill="none" stroke="black" d="M2198.56,-53.78C2397.13,-96.17 3205,-94.32 3205,-48.24 3205,-2.91 2422.95,-0.39 2208.63,-40.69"/>
<polygon fill="black" stroke="black" points="2207.68,-37.31 2198.56,-42.71 2209.06,-44.18 2207.68,-37.31"/>
<text text-anchor="middle" x="3229.5" y="-44.54" font-family="Times New Roman,serif" font-size="14.00">{a, d, e}</text>
</g>
<!-- 4&#45;&gt;4 -->
<g id="edge109" class="edge">
<title>4&#45;&gt;4</title>
<path fill="none" stroke="black" d="M2198.51,-53.81C2403.92,-98.17 3254,-96.31 3254,-48.24 3254,-0.92 2430.27,1.61 2208.61,-40.63"/>
<polygon fill="black" stroke="black" points="2207.62,-37.26 2198.51,-42.68 2209.01,-44.12 2207.62,-37.26"/>
<text text-anchor="middle" x="3265" y="-44.54" font-family="Times New Roman,serif" font-size="14.00">{b}</text>
</g>
<!-- 4&#45;&gt;4 -->
<g id="edge110" class="edge">
<title>4&#45;&gt;4</title>
<path fill="none" stroke="black" d="M2198.29,-53.82C2408.49,-100.17 3276,-98.31 3276,-48.24 3276,1.07 2434.55,3.62 2208.28,-40.6"/>
<polygon fill="black" stroke="black" points="2207.37,-37.21 2198.29,-42.67 2208.79,-44.06 2207.37,-37.21"/>
<text text-anchor="middle" x="3286" y="-44.54" font-family="Times New Roman,serif" font-size="14.00">{a}</text>
</g>
<!-- 4&#45;&gt;4 -->
<g id="edge111" class="edge">
<title>4&#45;&gt;4</title>
<path fill="none" stroke="black" d="M2198.33,-53.88C2413.72,-102.17 3296,-100.29 3296,-48.24 3296,3.04 2439.38,5.62 2208.22,-40.51"/>
<polygon fill="black" stroke="black" points="2207.39,-37.11 2198.33,-42.6 2208.84,-43.96 2207.39,-37.11"/>
<text text-anchor="middle" x="3320.5" y="-44.54" font-family="Times New Roman,serif" font-size="14.00">{c, d, e}</text>
</g>
<!-- 4&#45;&gt;4 -->
<g id="edge112" class="edge">
<title>4&#45;&gt;4</title>
<path fill="none" stroke="black" d="M2198.44,-53.94C2420.9,-104.17 3345,-102.27 3345,-48.24 3345,5.02 2446.89,7.62 2208.31,-40.44"/>
<polygon fill="black" stroke="black" points="2207.5,-37.04 2198.44,-42.54 2208.95,-43.88 2207.5,-37.04"/>
<text text-anchor="middle" x="3362.5" y="-44.54" font-family="Times New Roman,serif" font-size="14.00">{d, e}</text>
</g>
<!-- 4&#45;&gt;4 -->
<g id="edge113" class="edge">
<title>4&#45;&gt;4</title>
<path fill="none" stroke="black" d="M2198.46,-53.99C2426.98,-106.17 3380,-104.26 3380,-48.24 3380,6.98 2453.78,9.62 2208.6,-40.31"/>
<polygon fill="black" stroke="black" points="2207.5,-36.97 2198.46,-42.5 2208.98,-43.81 2207.5,-36.97"/>
<text text-anchor="middle" x="3398.5" y="-44.54" font-family="Times New Roman,serif" font-size="14.00">{b, d}</text>
</g>
<!-- 4&#45;&gt;4 -->
<g id="edge114" class="edge">
<title>4&#45;&gt;4</title>
<path fill="none" stroke="black" d="M2198.45,-54.02C2433.08,-108.18 3417,-106.25 3417,-48.24 3417,8.97 2459.8,11.63 2208.49,-40.27"/>
<polygon fill="black" stroke="black" points="2207.48,-36.91 2198.45,-42.46 2208.97,-43.75 2207.48,-36.91"/>
<text text-anchor="middle" x="3449" y="-44.54" font-family="Times New Roman,serif" font-size="14.00">{a, b, c, d}</text>
</g>
<!-- 4&#45;&gt;4 -->
<g id="edge115" class="edge">
<title>4&#45;&gt;4</title>
<path fill="none" stroke="black" d="M2198.48,-54.04C2440.77,-110.18 3481,-108.24 3481,-48.24 3481,10.97 2468.01,13.63 2208.48,-40.25"/>
<polygon fill="black" stroke="black" points="2207.5,-36.88 2198.48,-42.44 2209,-43.72 2207.5,-36.88"/>
<text text-anchor="middle" x="3512.5" y="-44.54" font-family="Times New Roman,serif" font-size="14.00">{a, b, c, e}</text>
</g>
<!-- 4&#45;&gt;4 -->
<g id="edge116" class="edge">
<title>4&#45;&gt;4</title>
<path fill="none" stroke="black" d="M2198.46,-54.05C2448.17,-112.18 3544,-110.24 3544,-48.24 3544,12.97 2475.82,15.64 2208.37,-40.24"/>
<polygon fill="black" stroke="black" points="2207.47,-36.86 2198.46,-42.43 2208.98,-43.7 2207.47,-36.86"/>
<text text-anchor="middle" x="3562" y="-44.54" font-family="Times New Roman,serif" font-size="14.00">{c, d}</text>
</g>
<!-- 5&#45;&gt;0 -->
<g id="edge122" class="edge">
<title>5&#45;&gt;0</title>
<path fill="none" stroke="black" d="M2084.98,-312.54C2184.84,-313.07 2542.31,-309.99 2827,-244.24 2892.38,-229.14 2929.97,-245.53 2968,-190.24 2974.33,-181.03 2969.67,-170.37 2962.37,-161.27"/>
<polygon fill="black" stroke="black" points="2964.83,-158.76 2955.5,-153.74 2959.66,-163.49 2964.83,-158.76"/>
<text text-anchor="middle" x="2963" y="-222.54" font-family="Times New Roman,serif" font-size="14.00">{d}</text>
</g>
<!-- 5&#45;&gt;0 -->
<g id="edge135" class="edge">
<title>5&#45;&gt;0</title>
<path fill="none" stroke="black" d="M2085.36,-312.33C2231.35,-312.52 2914.26,-309.88 2978,-244.24 2999.42,-222.18 2996.36,-202.94 2983,-175.24 2979.62,-168.23 2974.07,-162.19 2968.04,-157.2"/>
<polygon fill="black" stroke="black" points="2969.8,-154.15 2959.67,-151.05 2965.66,-159.79 2969.8,-154.15"/>
<text text-anchor="middle" x="3010.5" y="-222.54" font-family="Times New Roman,serif" font-size="14.00">{a, d}</text>
</g>
<!-- 5&#45;&gt;2 -->
<g id="edge126" class="edge">
<title>5&#45;&gt;2</title>
<path fill="none" stroke="black" d="M2085.07,-311.01C2137.41,-308.14 2250.06,-299.49 2281,-277.24 2289.05,-271.45 2294.8,-262.41 2298.81,-253.6"/>
<polygon fill="black" stroke="black" points="2302.07,-254.88 2302.51,-244.29 2295.56,-252.3 2302.07,-254.88"/>
<text text-anchor="middle" x="2311" y="-266.04" font-family="Times New Roman,serif" font-size="14.00">{a, c}</text>
</g>
<!-- 5&#45;&gt;2 -->
<g id="edge131" class="edge">
<title>5&#45;&gt;2</title>
<path fill="none" stroke="black" d="M2071.23,-297.12C2082.09,-285.71 2098.49,-270.62 2116,-262.24 2165.83,-238.4 2230.12,-230.74 2269.95,-228.31"/>
<polygon fill="black" stroke="black" points="2270.21,-231.8 2280.01,-227.78 2269.84,-224.81 2270.21,-231.8"/>
<text text-anchor="middle" x="2134" y="-266.04" font-family="Times New Roman,serif" font-size="14.00">{c, d}</text>
</g>
<!-- 5&#45;&gt;2 -->
<g id="edge136" class="edge">
<title>5&#45;&gt;2</title>
<path fill="none" stroke="black" d="M2081.35,-304.06C2100.48,-297.24 2128.18,-287.08 2152,-277.24 2166.89,-271.09 2169.88,-267.81 2185,-262.24 2213.77,-251.64 2247.3,-242.23 2271.92,-235.84"/>
<polygon fill="black" stroke="black" points="2273.06,-239.16 2281.89,-233.29 2271.33,-232.38 2273.06,-239.16"/>
<text text-anchor="middle" x="2209.5" y="-266.04" font-family="Times New Roman,serif" font-size="14.00">{a, c, d}</text>
</g>
<!-- 5&#45;&gt;2 -->
<g id="edge141" class="edge">
<title>5&#45;&gt;2</title>
<path fill="none" stroke="black" d="M2084.92,-310.27C2120.32,-306.93 2183.89,-298.33 2234,-277.24 2234.33,-277.1 2259.5,-259.85 2280.19,-245.65"/>
<polygon fill="black" stroke="black" points="2282.44,-248.35 2288.7,-239.81 2278.48,-242.58 2282.44,-248.35"/>
<text text-anchor="middle" x="2265.5" y="-266.04" font-family="Times New Roman,serif" font-size="14.00">{c}</text>
</g>
<!-- 5&#45;&gt;4 -->
<g id="edge117" class="edge">
<title>5&#45;&gt;4</title>
<path fill="none" stroke="black" d="M2084.95,-311.4C2221.57,-307.08 2834.6,-287.28 2919,-277.24 2952.97,-273.2 3501.29,-183.69 3523,-157.24 3577.3,-91.09 3450.15,-90.16 3441,-88.24 3317.36,-62.31 2394.29,-51.48 2209.24,-49.56"/>
<polygon fill="black" stroke="black" points="2209.11,-46.06 2199.08,-49.46 2209.04,-53.06 2209.11,-46.06"/>
<text text-anchor="middle" x="3495.5" y="-179.04" font-family="Times New Roman,serif" font-size="14.00">{a, b, e}</text>
</g>
<!-- 5&#45;&gt;4 -->
<g id="edge119" class="edge">
<title>5&#45;&gt;4</title>
<path fill="none" stroke="black" d="M2084.91,-311.37C2227.12,-306.72 2888.01,-284.87 2979,-277.24 3092.44,-267.74 3120.55,-261.97 3233,-244.24 3374.36,-221.96 3506.05,-295.49 3543,-157.24 3547.13,-141.78 3550.65,-135.3 3543,-121.24 3530.1,-97.53 3517.78,-96.27 3492,-88.24 3366.19,-49.05 2398.63,-48.83 2209.13,-49.16"/>
<polygon fill="black" stroke="black" points="2208.98,-45.66 2198.99,-49.18 2209,-52.66 2208.98,-45.66"/>
<text text-anchor="middle" x="3567.5" y="-179.04" font-family="Times New Roman,serif" font-size="14.00">{a, c, d, e}</text>
</g>
<!-- 5&#45;&gt;4 -->
<g id="edge120" class="edge">
<title>5&#45;&gt;4</title>
<path fill="none" stroke="black" d="M2084.88,-311.35C2239.56,-306.24 3010.97,-280.63 3061,-277.24 3207.18,-267.35 3244.69,-269.57 3389,-244.24 3485.62,-227.29 3542.72,-267.63 3603,-190.24 3638.24,-145.01 3576.98,-110.17 3524,-88.24 3461.38,-62.32 2408.37,-51.37 2209.32,-49.53"/>
<polygon fill="black" stroke="black" points="2209.24,-46.03 2199.21,-49.44 2209.18,-53.03 2209.24,-46.03"/>
<text text-anchor="middle" x="3635.5" y="-179.04" font-family="Times New Roman,serif" font-size="14.00">{b, c, e}</text>
</g>
<!-- 5&#45;&gt;4 -->
<g id="edge121" class="edge">
<title>5&#45;&gt;4</title>
<path fill="none" stroke="black" d="M2085.07,-311.33C2162.13,-308.74 2389.31,-301.16 2578,-295.24 2783.32,-288.81 3300.13,-287.24 3501,-244.24 3575.63,-228.27 3619.32,-252.11 3664,-190.24 3703.23,-135.93 3617.65,-105.83 3553,-88.24 3419.68,-51.98 2404.4,-49.41 2209.35,-49.25"/>
<polygon fill="black" stroke="black" points="2209.18,-45.75 2199.18,-49.24 2209.18,-52.75 2209.18,-45.75"/>
<text text-anchor="middle" x="3703" y="-179.04" font-family="Times New Roman,serif" font-size="14.00">{b, c, d, e}</text>
</g>
<!-- 5&#45;&gt;4 -->
<g id="edge123" class="edge">
<title>5&#45;&gt;4</title>
<path fill="none" stroke="black" d="M2085.06,-311.28C2162.12,-308.58 2389.3,-300.7 2578,-295.24 2802.64,-288.75 3369.08,-294.99 3588,-244.24 3657.43,-228.15 3697.96,-248.51 3739,-190.24 3785.22,-124.63 3668.54,-104.75 3590,-88.24 3450.94,-59 2406.89,-50.75 2209.24,-49.44"/>
<polygon fill="black" stroke="black" points="2209.22,-45.94 2199.2,-49.38 2209.18,-52.94 2209.22,-45.94"/>
<text text-anchor="middle" x="3763" y="-179.04" font-family="Times New Roman,serif" font-size="14.00">{a, e}</text>
</g>
<!-- 5&#45;&gt;4 -->
<g id="edge124" class="edge">
<title>5&#45;&gt;4</title>
<path fill="none" stroke="black" d="M2085.06,-311.25C2162.12,-308.46 2389.29,-300.39 2578,-295.24 2944.62,-285.25 3037.21,-303.85 3403,-277.24 3576.23,-264.64 3690.87,-336.86 3784,-190.24 3840.28,-101.64 3643.97,-89.39 3637,-88.24 3491.89,-64.39 2410.88,-51.74 2209.31,-49.58"/>
<polygon fill="black" stroke="black" points="2209.13,-46.08 2199.09,-49.47 2209.05,-53.08 2209.13,-46.08"/>
<text text-anchor="middle" x="3807" y="-179.04" font-family="Times New Roman,serif" font-size="14.00">{c, e}</text>
</g>
<!-- 5&#45;&gt;4 -->
<g id="edge125" class="edge">
<title>5&#45;&gt;4</title>
<path fill="none" stroke="black" d="M2085.06,-311.22C2162.11,-308.33 2389.28,-300.04 2578,-295.24 2798.41,-289.64 3350.44,-297.33 3570,-277.24 3690.51,-266.22 3779.23,-300.99 3828,-190.24 3858.31,-121.42 3767.13,-100.91 3693,-88.24 3542.18,-62.46 2415.19,-51.34 2209.26,-49.52"/>
<polygon fill="black" stroke="black" points="2209.13,-46.02 2199.1,-49.43 2209.07,-53.02 2209.13,-46.02"/>
<text text-anchor="middle" x="3857" y="-179.04" font-family="Times New Roman,serif" font-size="14.00">{b, d, e}</text>
</g>
<!-- 5&#45;&gt;4 -->
<g id="edge128" class="edge">
<title>5&#45;&gt;4</title>
<path fill="none" stroke="black" d="M2031.45,-309.55C1993.48,-305.8 1921.47,-299.02 1860,-295.24 1806.29,-291.94 1423.22,-303.05 1376,-277.24 1343.22,-259.33 1359.49,-228.34 1328,-208.24 1287.48,-182.38 1206.73,-219.71 1225,-175.24 1245.66,-124.95 1261.31,-110.32 1311,-88.24 1388.24,-53.93 1996.69,-49.8 2144.65,-49.31"/>
<polygon fill="black" stroke="black" points="2144.89,-52.81 2154.88,-49.28 2144.87,-45.81 2144.89,-52.81"/>
<text text-anchor="middle" x="1264" y="-179.04" font-family="Times New Roman,serif" font-size="14.00">{a, b, c, d, e}</text>
</g>
<!-- 5&#45;&gt;4 -->
<g id="edge129" class="edge">
<title>5&#45;&gt;4</title>
<path fill="none" stroke="black" d="M2031.45,-309.58C1993.48,-305.85 1921.46,-299.12 1860,-295.24 1810.5,-292.12 1458.71,-298.71 1414,-277.24 1377.37,-259.65 1384.73,-234.83 1354,-208.24 1342.81,-198.56 1333.09,-203.23 1326,-190.24 1322.81,-184.39 1324.97,-181.83 1326,-175.24 1332.3,-135.11 1321.75,-112.93 1354,-88.24 1385.89,-63.83 1995.47,-52.23 2144.39,-49.76"/>
<polygon fill="black" stroke="black" points="2144.75,-53.25 2154.69,-49.59 2144.63,-46.25 2144.75,-53.25"/>
<text text-anchor="middle" x="1336" y="-179.04" font-family="Times New Roman,serif" font-size="14.00">{e}</text>
</g>
<!-- 5&#45;&gt;4 -->
<g id="edge130" class="edge">
<title>5&#45;&gt;4</title>
<path fill="none" stroke="black" d="M2031.44,-309.61C1993.47,-305.92 1921.46,-299.23 1860,-295.24 1814.72,-292.3 1493.31,-296.01 1452,-277.24 1439.84,-271.72 1373.97,-202.64 1369,-190.24 1366.52,-184.05 1367.7,-181.78 1369,-175.24 1377.16,-134.2 1370.81,-112.37 1405,-88.24 1466.05,-45.16 2005.19,-47.52 2144.34,-48.86"/>
<polygon fill="black" stroke="black" points="2144.72,-52.37 2154.75,-48.97 2144.79,-45.37 2144.72,-52.37"/>
<text text-anchor="middle" x="1393" y="-179.04" font-family="Times New Roman,serif" font-size="14.00">{a, c, e}</text>
</g>
<!-- 5&#45;&gt;4 -->
<g id="edge132" class="edge">
<title>5&#45;&gt;4</title>
<path fill="none" stroke="black" d="M2031.44,-309.67C1993.46,-306.07 1921.44,-299.47 1860,-295.24 1821.37,-292.59 1546.6,-294.62 1512,-277.24 1432.09,-237.1 1380.36,-152.06 1443,-88.24 1467.91,-62.86 2006.11,-52.11 2144.69,-49.76"/>
<polygon fill="black" stroke="black" points="2144.75,-53.26 2154.69,-49.59 2144.63,-46.26 2144.75,-53.26"/>
<text text-anchor="middle" x="1456" y="-179.04" font-family="Times New Roman,serif" font-size="14.00">{a, b, d, e}</text>
</g>
<!-- 5&#45;&gt;4 -->
<g id="edge133" class="edge">
<title>5&#45;&gt;4</title>
<path fill="none" stroke="black" d="M2031.43,-309.76C1993.45,-306.26 1921.42,-299.78 1860,-295.24 1827.8,-292.86 1598.37,-292.64 1570,-277.24 1562.71,-273.28 1483.6,-165.12 1481,-157.24 1471.38,-128.12 1459.93,-110.53 1481,-88.24 1504.07,-63.84 2010.48,-52.43 2144.63,-49.83"/>
<polygon fill="black" stroke="black" points="2144.76,-53.33 2154.69,-49.64 2144.63,-46.33 2144.76,-53.33"/>
<text text-anchor="middle" x="1519.5" y="-179.04" font-family="Times New Roman,serif" font-size="14.00">{b, e}</text>
</g>
<!-- 5&#45;&gt;4 -->
<g id="edge137" class="edge">
<title>5&#45;&gt;4</title>
<path fill="none" stroke="black" d="M2031.42,-309.93C1993.42,-306.64 1921.37,-300.41 1860,-295.24 1811.56,-291.16 1686.05,-297.79 1642,-277.24 1584.18,-250.28 1588.2,-218.17 1541,-175.24 1531.65,-166.74 1524.41,-168.66 1519,-157.24 1505.87,-129.53 1497.97,-110.56 1519,-88.24 1540.69,-65.23 2015.46,-52.88 2144.74,-49.94"/>
<polygon fill="black" stroke="black" points="2144.89,-53.44 2154.81,-49.71 2144.73,-46.44 2144.89,-53.44"/>
<text text-anchor="middle" x="1579.5" y="-179.04" font-family="Times New Roman,serif" font-size="14.00">{a, d, e}</text>
</g>
<!-- 5&#45;&gt;4 -->
<g id="edge139" class="edge">
<title>5&#45;&gt;4</title>
<path fill="none" stroke="black" d="M2031.18,-309.99C1952.74,-303.36 1728.37,-283.9 1714,-277.24 1654.68,-249.76 1663.64,-209.57 1608,-175.24 1587.54,-162.62 1570.88,-176.86 1557,-157.24 1539.29,-132.21 1536.01,-110.6 1557,-88.24 1577.31,-66.61 2020.94,-53.35 2145.02,-50.05"/>
<polygon fill="black" stroke="black" points="2145.13,-53.55 2155.03,-49.79 2144.94,-46.55 2145.13,-53.55"/>
<text text-anchor="middle" x="1651.5" y="-179.04" font-family="Times New Roman,serif" font-size="14.00">{c, d, e}</text>
</g>
<!-- 5&#45;&gt;4 -->
<g id="edge143" class="edge">
<title>5&#45;&gt;4</title>
<path fill="none" stroke="black" d="M2031.18,-310.04C1964.46,-304.4 1794.75,-289.07 1772,-277.24 1717.83,-249.09 1732.89,-205.72 1680,-175.24 1646.54,-155.96 1619.31,-187.24 1595,-157.24 1575.69,-133.42 1574.05,-110.64 1595,-88.24 1632.69,-47.94 2028.04,-47.99 2144.74,-48.9"/>
<polygon fill="black" stroke="black" points="2144.81,-52.4 2154.84,-48.99 2144.87,-45.4 2144.81,-52.4"/>
<text text-anchor="middle" x="1717.5" y="-179.04" font-family="Times New Roman,serif" font-size="14.00">{d, e}</text>
</g>
<!-- 5&#45;&gt;4 -->
<g id="edge146" class="edge">
<title>5&#45;&gt;4</title>
<path fill="none" stroke="black" d="M2036.21,-302.19C1974.52,-273.85 1799.25,-194.12 1739,-175.24 1700.91,-163.3 1676.24,-188.17 1651,-157.24 1640.88,-144.85 1646.05,-136.46 1651,-121.24 1656.61,-104 1659.17,-97.09 1675,-88.24 1715.9,-65.38 2040.43,-53.46 2144.8,-50.19"/>
<polygon fill="black" stroke="black" points="2145.14,-53.68 2155.03,-49.87 2144.93,-46.68 2145.14,-53.68"/>
<text text-anchor="middle" x="1809.5" y="-179.04" font-family="Times New Roman,serif" font-size="14.00">{a, b, c, e}</text>
</g>
<!-- 5&#45;&gt;5 -->
<g id="edge118" class="edge">
<title>5&#45;&gt;5</title>
<path fill="none" stroke="black" d="M2085.24,-314.74C2095.02,-314.77 2103,-314.27 2103,-313.24 2103,-312.61 2100.04,-312.18 2095.51,-311.95"/>
<polygon fill="black" stroke="black" points="2095.31,-308.44 2085.24,-311.74 2095.17,-315.44 2095.31,-308.44"/>
<text text-anchor="middle" x="2121" y="-309.54" font-family="Times New Roman,serif" font-size="14.00">{b, c}</text>
</g>
<!-- 5&#45;&gt;5 -->
<g id="edge127" class="edge">
<title>5&#45;&gt;5</title>
<path fill="none" stroke="black" d="M2084.84,-315.77C2109.67,-316.88 2139,-316.04 2139,-313.24 2139,-310.82 2116.94,-309.86 2094.89,-310.38"/>
<polygon fill="black" stroke="black" points="2094.72,-306.88 2084.84,-310.72 2094.95,-313.88 2094.72,-306.88"/>
<text text-anchor="middle" x="2157.5" y="-309.54" font-family="Times New Roman,serif" font-size="14.00">{b, d}</text>
</g>
<!-- 5&#45;&gt;5 -->
<g id="edge134" class="edge">
<title>5&#45;&gt;5</title>
<path fill="none" stroke="black" d="M2084.69,-316.42C2121.84,-318.93 2176,-317.87 2176,-313.24 2176,-309.03 2131.13,-307.77 2095.06,-309.48"/>
<polygon fill="black" stroke="black" points="2094.47,-306.01 2084.69,-310.07 2094.87,-312.99 2094.47,-306.01"/>
<text text-anchor="middle" x="2200.5" y="-309.54" font-family="Times New Roman,serif" font-size="14.00">{a, b, c}</text>
</g>
<!-- 5&#45;&gt;5 -->
<g id="edge138" class="edge">
<title>5&#45;&gt;5</title>
<path fill="none" stroke="black" d="M2084.57,-316.81C2135.26,-320.98 2225,-319.79 2225,-313.24 2225,-307.12 2146.45,-305.68 2094.82,-308.94"/>
<polygon fill="black" stroke="black" points="2094.29,-305.46 2084.57,-309.67 2094.8,-312.45 2094.29,-305.46"/>
<text text-anchor="middle" x="2250.5" y="-309.54" font-family="Times New Roman,serif" font-size="14.00">{b, c, d}</text>
</g>
<!-- 5&#45;&gt;5 -->
<g id="edge140" class="edge">
<title>5&#45;&gt;5</title>
<path fill="none" stroke="black" d="M2084.44,-317.12C2147.38,-323.01 2276,-321.72 2276,-313.24 2276,-305.2 2160.12,-303.62 2094.52,-308.53"/>
<polygon fill="black" stroke="black" points="2094.12,-305.05 2084.44,-309.37 2094.7,-312.02 2094.12,-305.05"/>
<text text-anchor="middle" x="2308" y="-309.54" font-family="Times New Roman,serif" font-size="14.00">{a, b, c, d}</text>
</g>
<!-- 5&#45;&gt;5 -->
<g id="edge142" class="edge">
<title>5&#45;&gt;5</title>
<path fill="none" stroke="black" d="M2084.31,-317.31C2160.57,-325.04 2340,-323.68 2340,-313.24 2340,-303.25 2175.66,-301.58 2094.69,-308.23"/>
<polygon fill="black" stroke="black" points="2093.95,-304.78 2084.31,-309.17 2094.59,-311.75 2093.95,-304.78"/>
<text text-anchor="middle" x="2357.5" y="-309.54" font-family="Times New Roman,serif" font-size="14.00">{a, b}</text>
</g>
<!-- 5&#45;&gt;5 -->
<g id="edge144" class="edge">
<title>5&#45;&gt;5</title>
<path fill="none" stroke="black" d="M2084.29,-317.62C2168.15,-327.05 2375,-325.59 2375,-313.24 2375,-301.37 2183.61,-299.56 2094.39,-307.84"/>
<polygon fill="black" stroke="black" points="2093.88,-304.37 2084.29,-308.87 2094.6,-311.33 2093.88,-304.37"/>
<text text-anchor="middle" x="2386" y="-309.54" font-family="Times New Roman,serif" font-size="14.00">{b}</text>
</g>
<!-- 5&#45;&gt;5 -->
<g id="edge145" class="edge">
<title>5&#45;&gt;5</title>
<path fill="none" stroke="black" d="M2084.11,-317.92C2173.31,-329.05 2397,-327.49 2397,-313.24 2397,-299.51 2189.19,-297.56 2094.29,-307.41"/>
<polygon fill="black" stroke="black" points="2093.66,-303.96 2084.11,-308.57 2094.45,-310.91 2093.66,-303.96"/>
<text text-anchor="middle" x="2422" y="-309.54" font-family="Times New Roman,serif" font-size="14.00">{a, b, d}</text>
</g>
</g>
</svg>
