<?xml version="1.0" encoding="UTF-8" standalone="no"?>
<!DOCTYPE svg PUBLIC "-//W3C//DTD SVG 1.1//EN"
 "http://www.w3.org/Graphics/SVG/1.1/DTD/svg11.dtd">
<!-- Generated by graphviz version 2.47.3 (20210619.1520)
 -->
<!-- Pages: 1 -->
<svg width="1659pt" height="388pt"
 viewBox="0.00 0.00 1659.47 388.43" xmlns="http://www.w3.org/2000/svg" xmlns:xlink="http://www.w3.org/1999/xlink">
<g id="graph0" class="graph" transform="scale(1 1) rotate(0) translate(4 384.43)">
<polygon fill="white" stroke="transparent" points="-4,4 -4,-384.43 1655.47,-384.43 1655.47,4 -4,4"/>
<!-- fake -->
<g id="node1" class="node">
<title>fake</title>
</g>
<!-- 2 -->
<g id="node3" class="node">
<title>2</title>
<ellipse fill="none" stroke="black" cx="351.47" cy="-289.43" rx="27" ry="18"/>
<text text-anchor="middle" x="351.47" y="-285.73" font-family="Times New Roman,serif" font-size="14.00">2</text>
</g>
<!-- fake&#45;&gt;2 -->
<g id="edge1" class="edge">
<title>fake&#45;&gt;2</title>
<path fill="none" stroke="black" stroke-width="2" d="M351.47,-344.25C351.47,-336.22 351.47,-326.48 351.47,-317.5"/>
<polygon fill="black" stroke="black" stroke-width="2" points="354.97,-317.46 351.47,-307.46 347.97,-317.46 354.97,-317.46"/>
</g>
<!-- 1 -->
<g id="node2" class="node">
<title>1</title>
<ellipse fill="none" stroke="black" cx="766.47" cy="-24.43" rx="18" ry="18"/>
<ellipse fill="none" stroke="black" cx="766.47" cy="-24.43" rx="22" ry="22"/>
<text text-anchor="middle" x="766.47" y="-20.73" font-family="Times New Roman,serif" font-size="14.00">1</text>
</g>
<!-- 1&#45;&gt;1 -->
<g id="edge2" class="edge">
<title>1&#45;&gt;1</title>
<path fill="none" stroke="black" d="M788.68,-25.92C798.27,-26.04 806.47,-25.54 806.47,-24.43 806.47,-23.76 803.42,-23.31 798.88,-23.09"/>
<polygon fill="black" stroke="black" points="798.73,-19.59 788.68,-22.95 798.64,-26.59 798.73,-19.59"/>
<text text-anchor="middle" x="830.97" y="-20.73" font-family="Times New Roman,serif" font-size="14.00">{a, c, d}</text>
</g>
<!-- 1&#45;&gt;1 -->
<g id="edge3" class="edge">
<title>1&#45;&gt;1</title>
<path fill="none" stroke="black" d="M788.53,-26.68C816.28,-28.18 855.47,-27.43 855.47,-24.43 855.47,-21.79 824.93,-20.89 798.68,-21.75"/>
<polygon fill="black" stroke="black" points="798.38,-18.26 788.53,-22.18 798.67,-25.25 798.38,-18.26"/>
<text text-anchor="middle" x="872.47" y="-20.73" font-family="Times New Roman,serif" font-size="14.00">{a, c}</text>
</g>
<!-- 1&#45;&gt;1 -->
<g id="edge4" class="edge">
<title>1&#45;&gt;1</title>
<path fill="none" stroke="black" d="M788.33,-27.26C826.23,-30.21 889.47,-29.26 889.47,-24.43 889.47,-20.02 836.63,-18.85 798.6,-20.93"/>
<polygon fill="black" stroke="black" points="798.08,-17.46 788.33,-21.61 798.53,-24.44 798.08,-17.46"/>
<text text-anchor="middle" x="913.97" y="-20.73" font-family="Times New Roman,serif" font-size="14.00">{a, b, c}</text>
</g>
<!-- 1&#45;&gt;1 -->
<g id="edge5" class="edge">
<title>1&#45;&gt;1</title>
<path fill="none" stroke="black" d="M788.56,-27.63C838.79,-32.23 938.47,-31.17 938.47,-24.43 938.47,-18.13 851.23,-16.8 798.85,-20.42"/>
<polygon fill="black" stroke="black" points="798.25,-16.96 788.56,-21.24 798.81,-23.93 798.25,-16.96"/>
<text text-anchor="middle" x="955.97" y="-20.73" font-family="Times New Roman,serif" font-size="14.00">{a, d}</text>
</g>
<!-- 1&#45;&gt;1 -->
<g id="edge6" class="edge">
<title>1&#45;&gt;1</title>
<path fill="none" stroke="black" d="M788.43,-27.98C847.03,-34.25 973.47,-33.07 973.47,-24.43 973.47,-16.27 860.48,-14.77 798.62,-19.93"/>
<polygon fill="black" stroke="black" points="798.06,-16.47 788.43,-20.89 798.72,-23.44 798.06,-16.47"/>
<text text-anchor="middle" x="990.97" y="-20.73" font-family="Times New Roman,serif" font-size="14.00">{a, b}</text>
</g>
<!-- 1&#45;&gt;1 -->
<g id="edge7" class="edge">
<title>1&#45;&gt;1</title>
<path fill="none" stroke="black" d="M788.42,-28.27C855.01,-36.26 1008.47,-34.98 1008.47,-24.43 1008.47,-14.4 869.63,-12.76 798.77,-19.5"/>
<polygon fill="black" stroke="black" points="797.99,-16.06 788.42,-20.6 798.73,-23.02 797.99,-16.06"/>
<text text-anchor="middle" x="1026.47" y="-20.73" font-family="Times New Roman,serif" font-size="14.00">{c, d}</text>
</g>
<!-- 1&#45;&gt;1 -->
<g id="edge8" class="edge">
<title>1&#45;&gt;1</title>
<path fill="none" stroke="black" d="M788.56,-28.53C863.09,-38.27 1044.47,-36.9 1044.47,-24.43 1044.47,-12.5 878.34,-10.74 798.74,-19.15"/>
<polygon fill="black" stroke="black" points="798.09,-15.7 788.56,-20.34 798.9,-22.65 798.09,-15.7"/>
<text text-anchor="middle" x="1069.97" y="-20.73" font-family="Times New Roman,serif" font-size="14.00">{b, c, d}</text>
</g>
<!-- 1&#45;&gt;1 -->
<g id="edge9" class="edge">
<title>1&#45;&gt;1</title>
<path fill="none" stroke="black" d="M788.2,-28.63C872.16,-40.28 1095.47,-38.89 1095.47,-24.43 1095.47,-10.53 888.85,-8.71 798.38,-18.97"/>
<polygon fill="black" stroke="black" points="797.69,-15.53 788.2,-20.24 798.56,-22.47 797.69,-15.53"/>
<text text-anchor="middle" x="1127.47" y="-20.73" font-family="Times New Roman,serif" font-size="14.00">{a, b, c, d}</text>
</g>
<!-- 1&#45;&gt;1 -->
<g id="edge10" class="edge">
<title>1&#45;&gt;1</title>
<path fill="none" stroke="black" d="M788.19,-28.72C882.95,-42.3 1159.47,-40.87 1159.47,-24.43 1159.47,-8.54 901.01,-6.68 798.22,-18.85"/>
<polygon fill="black" stroke="black" points="797.66,-15.39 788.19,-20.15 798.56,-22.33 797.66,-15.39"/>
<text text-anchor="middle" x="1166.47" y="-20.73" font-family="Times New Roman,serif" font-size="14.00">{}</text>
</g>
<!-- 1&#45;&gt;1 -->
<g id="edge11" class="edge">
<title>1&#45;&gt;1</title>
<path fill="none" stroke="black" d="M788.28,-28.95C887.88,-44.3 1177.47,-42.79 1177.47,-24.43 1177.47,-6.67 906.24,-4.68 798.48,-18.48"/>
<polygon fill="black" stroke="black" points="797.7,-15.06 788.28,-19.92 798.67,-21.99 797.7,-15.06"/>
<text text-anchor="middle" x="1188.47" y="-20.73" font-family="Times New Roman,serif" font-size="14.00">{b}</text>
</g>
<!-- 1&#45;&gt;1 -->
<g id="edge12" class="edge">
<title>1&#45;&gt;1</title>
<path fill="none" stroke="black" d="M788.26,-29.13C893.16,-46.3 1199.47,-44.74 1199.47,-24.43 1199.47,-4.75 911.43,-2.68 798.33,-18.23"/>
<polygon fill="black" stroke="black" points="797.63,-14.79 788.26,-19.74 798.67,-21.72 797.63,-14.79"/>
<text text-anchor="middle" x="1209.97" y="-20.73" font-family="Times New Roman,serif" font-size="14.00">{c}</text>
</g>
<!-- 1&#45;&gt;1 -->
<g id="edge13" class="edge">
<title>1&#45;&gt;1</title>
<path fill="none" stroke="black" d="M788.04,-29.26C898,-48.31 1220.47,-46.7 1220.47,-24.43 1220.47,-2.82 916.62,-0.67 798.24,-17.99"/>
<polygon fill="black" stroke="black" points="797.37,-14.58 788.04,-19.61 798.47,-21.49 797.37,-14.58"/>
<text text-anchor="middle" x="1238.97" y="-20.73" font-family="Times New Roman,serif" font-size="14.00">{b, d}</text>
</g>
<!-- 1&#45;&gt;1 -->
<g id="edge14" class="edge">
<title>1&#45;&gt;1</title>
<path fill="none" stroke="black" d="M788.23,-29.4C905.37,-50.31 1257.47,-48.66 1257.47,-24.43 1257.47,-0.87 924.36,1.34 798.35,-17.8"/>
<polygon fill="black" stroke="black" points="797.53,-14.39 788.23,-19.47 798.67,-21.3 797.53,-14.39"/>
<text text-anchor="middle" x="1267.47" y="-20.73" font-family="Times New Roman,serif" font-size="14.00">{a}</text>
</g>
<!-- 1&#45;&gt;1 -->
<g id="edge15" class="edge">
<title>1&#45;&gt;1</title>
<path fill="none" stroke="black" d="M788.02,-29.5C910.16,-52.32 1277.47,-50.63 1277.47,-24.43 1277.47,1.07 929.27,3.34 798.18,-17.62"/>
<polygon fill="black" stroke="black" points="797.28,-14.22 788.02,-19.37 798.47,-21.12 797.28,-14.22"/>
<text text-anchor="middle" x="1295.47" y="-20.73" font-family="Times New Roman,serif" font-size="14.00">{b, c}</text>
</g>
<!-- 1&#45;&gt;1 -->
<g id="edge16" class="edge">
<title>1&#45;&gt;1</title>
<path fill="none" stroke="black" d="M788.25,-29.63C917.43,-54.32 1313.47,-52.59 1313.47,-24.43 1313.47,3.03 936.53,5.35 798.18,-17.48"/>
<polygon fill="black" stroke="black" points="797.49,-14.05 788.25,-19.24 798.71,-20.94 797.49,-14.05"/>
<text text-anchor="middle" x="1338.47" y="-20.73" font-family="Times New Roman,serif" font-size="14.00">{a, b, d}</text>
</g>
<!-- 1&#45;&gt;1 -->
<g id="edge17" class="edge">
<title>1&#45;&gt;1</title>
<path fill="none" stroke="black" d="M788.05,-29.65C925.05,-56.33 1363.47,-54.59 1363.47,-24.43 1363.47,5.02 945.36,7.36 798.17,-17.39"/>
<polygon fill="black" stroke="black" points="797.27,-14 788.05,-19.22 798.51,-20.89 797.27,-14"/>
<text text-anchor="middle" x="1374.47" y="-20.73" font-family="Times New Roman,serif" font-size="14.00">{d}</text>
</g>
<!-- 2&#45;&gt;1 -->
<g id="edge19" class="edge">
<title>2&#45;&gt;1</title>
<path fill="none" stroke="black" d="M324.3,-288.06C260.54,-286.72 103.41,-280.68 59.47,-253.43 20.18,-229.07 15.69,-210.73 2.47,-166.43 -11.61,-119.24 41.47,-74.81 59.47,-64.43 118.39,-30.47 603.68,-26.08 734.23,-25.52"/>
<polygon fill="black" stroke="black" points="734.4,-29.02 744.39,-25.48 734.37,-22.02 734.4,-29.02"/>
<text text-anchor="middle" x="26.97" y="-155.23" font-family="Times New Roman,serif" font-size="14.00">{a, c, d}</text>
</g>
<!-- 2&#45;&gt;1 -->
<g id="edge20" class="edge">
<title>2&#45;&gt;1</title>
<path fill="none" stroke="black" d="M324.29,-287.48C269.88,-285.07 150,-277.15 117.47,-253.43 49.6,-203.94 47.48,-110.88 117.47,-64.43 169.11,-30.17 609.8,-25.99 734.01,-25.5"/>
<polygon fill="black" stroke="black" points="734.38,-29 744.37,-25.46 734.36,-22 734.38,-29"/>
<text text-anchor="middle" x="83.97" y="-155.23" font-family="Times New Roman,serif" font-size="14.00">{a, d}</text>
</g>
<!-- 2&#45;&gt;1 -->
<g id="edge21" class="edge">
<title>2&#45;&gt;1</title>
<path fill="none" stroke="black" d="M324.87,-285.96C281.84,-281.5 199.47,-270.92 176.47,-253.43 109.6,-202.6 106.41,-110.77 176.47,-64.43 223.13,-33.58 617.97,-26.99 734.33,-25.72"/>
<polygon fill="black" stroke="black" points="734.43,-29.22 744.39,-25.61 734.36,-22.22 734.43,-29.22"/>
<text text-anchor="middle" x="144.47" y="-155.23" font-family="Times New Roman,serif" font-size="14.00">{c, d}</text>
</g>
<!-- 2&#45;&gt;1 -->
<g id="edge23" class="edge">
<title>2&#45;&gt;1</title>
<path fill="none" stroke="black" d="M325.22,-284.11C303.44,-279.48 272.56,-270.37 250.47,-253.43 213.4,-225 205.19,-211.1 191.47,-166.43 176.82,-118.73 230.21,-76.17 250.47,-64.43 292.27,-40.21 628.16,-29.16 734.39,-26.25"/>
<polygon fill="black" stroke="black" points="734.59,-29.74 744.5,-25.98 734.41,-22.75 734.59,-29.74"/>
<text text-anchor="middle" x="216.97" y="-155.23" font-family="Times New Roman,serif" font-size="14.00">{b, c, d}</text>
</g>
<!-- 2&#45;&gt;1 -->
<g id="edge24" class="edge">
<title>2&#45;&gt;1</title>
<path fill="none" stroke="black" d="M336.62,-273.96C315.95,-252.68 279.49,-210.65 265.47,-166.43 248.87,-114.07 312.73,-77.48 337.47,-64.43 406.3,-28.16 646.65,-25.09 734.23,-25.21"/>
<polygon fill="black" stroke="black" points="734.36,-28.71 744.37,-25.24 734.38,-21.71 734.36,-28.71"/>
<text text-anchor="middle" x="297.47" y="-155.23" font-family="Times New Roman,serif" font-size="14.00">{a, b, c, d}</text>
</g>
<!-- 2&#45;&gt;1 -->
<g id="edge26" class="edge">
<title>2&#45;&gt;1</title>
<path fill="none" stroke="black" d="M348.32,-271.42C341.31,-227.5 329.94,-110.57 397.47,-64.43 451.76,-27.34 654.12,-24.61 733.87,-25.02"/>
<polygon fill="black" stroke="black" points="734.26,-28.52 744.28,-25.1 734.31,-21.52 734.26,-28.52"/>
<text text-anchor="middle" x="366.97" y="-155.23" font-family="Times New Roman,serif" font-size="14.00">{b, d}</text>
</g>
<!-- 2&#45;&gt;1 -->
<g id="edge28" class="edge">
<title>2&#45;&gt;1</title>
<path fill="none" stroke="black" d="M356.64,-271.71C372.13,-222.04 418.19,-77.98 435.47,-64.43 481.38,-28.46 660.23,-24.96 734.19,-25.1"/>
<polygon fill="black" stroke="black" points="734.3,-28.6 744.31,-25.14 734.33,-21.6 734.3,-28.6"/>
<text text-anchor="middle" x="421.47" y="-155.23" font-family="Times New Roman,serif" font-size="14.00">{a, b, d}</text>
</g>
<!-- 2&#45;&gt;1 -->
<g id="edge31" class="edge">
<title>2&#45;&gt;1</title>
<path fill="none" stroke="black" d="M364.74,-273.6C384.49,-251.19 422.32,-206.99 450.47,-166.43 480.46,-123.23 466.92,-93.92 510.47,-64.43 546.38,-40.12 673.55,-30.31 734.04,-26.94"/>
<polygon fill="black" stroke="black" points="734.38,-30.43 744.18,-26.41 734.01,-23.44 734.38,-30.43"/>
<text text-anchor="middle" x="470.47" y="-155.23" font-family="Times New Roman,serif" font-size="14.00">{d}</text>
</g>
<!-- 2&#45;&gt;2 -->
<g id="edge18" class="edge">
<title>2&#45;&gt;2</title>
<path fill="none" stroke="black" d="M378.71,-291.12C388.5,-291.16 396.47,-290.59 396.47,-289.43 396.47,-288.73 393.51,-288.24 388.98,-287.98"/>
<polygon fill="black" stroke="black" points="388.79,-284.47 378.71,-287.75 388.63,-291.47 388.79,-284.47"/>
<text text-anchor="middle" x="413.97" y="-285.73" font-family="Times New Roman,serif" font-size="14.00">{a, b}</text>
</g>
<!-- 2&#45;&gt;2 -->
<g id="edge25" class="edge">
<title>2&#45;&gt;2</title>
<path fill="none" stroke="black" d="M378.51,-292.29C402.95,-293.52 431.47,-292.56 431.47,-289.43 431.47,-286.73 410.21,-285.65 388.68,-286.2"/>
<polygon fill="black" stroke="black" points="388.37,-282.7 378.51,-286.57 388.63,-289.7 388.37,-282.7"/>
<text text-anchor="middle" x="455.97" y="-285.73" font-family="Times New Roman,serif" font-size="14.00">{a, b, c}</text>
</g>
<!-- 2&#45;&gt;2 -->
<g id="edge27" class="edge">
<title>2&#45;&gt;2</title>
<path fill="none" stroke="black" d="M378.1,-292.9C418.22,-295.86 480.47,-294.71 480.47,-289.43 480.47,-284.58 427.79,-283.22 388.12,-285.34"/>
<polygon fill="black" stroke="black" points="387.86,-281.85 378.1,-285.97 388.31,-288.84 387.86,-281.85"/>
<text text-anchor="middle" x="490.47" y="-285.73" font-family="Times New Roman,serif" font-size="14.00">{a}</text>
</g>
<!-- 2&#45;&gt;2 -->
<g id="edge30" class="edge">
<title>2&#45;&gt;2</title>
<path fill="none" stroke="black" d="M377.81,-293.58C424.26,-298.11 500.47,-296.73 500.47,-289.43 500.47,-282.65 434.6,-280.98 388.01,-284.42"/>
<polygon fill="black" stroke="black" points="387.48,-280.95 377.81,-285.29 388.07,-287.93 387.48,-280.95"/>
<text text-anchor="middle" x="517.47" y="-285.73" font-family="Times New Roman,serif" font-size="14.00">{a, c}</text>
</g>
<!-- 3 -->
<g id="node4" class="node">
<title>3</title>
<ellipse fill="none" stroke="black" cx="779.47" cy="-202.43" rx="27" ry="18"/>
<text text-anchor="middle" x="779.47" y="-198.73" font-family="Times New Roman,serif" font-size="14.00">3</text>
</g>
<!-- 2&#45;&gt;3 -->
<g id="edge29" class="edge">
<title>2&#45;&gt;3</title>
<path fill="none" stroke="black" d="M376.96,-283.37C449.95,-268.88 659.88,-227.18 743.99,-210.48"/>
<polygon fill="black" stroke="black" points="744.72,-213.9 753.84,-208.52 743.35,-207.04 744.72,-213.9"/>
<text text-anchor="middle" x="601.47" y="-242.23" font-family="Times New Roman,serif" font-size="14.00">{b}</text>
</g>
<!-- 2&#45;&gt;3 -->
<g id="edge32" class="edge">
<title>2&#45;&gt;3</title>
<path fill="none" stroke="black" d="M378.43,-286.37C426.62,-282.34 530.55,-272.15 616.47,-253.43 662.47,-243.41 714.23,-226.55 746.84,-215.21"/>
<polygon fill="black" stroke="black" points="748.04,-218.49 756.31,-211.88 745.72,-211.89 748.04,-218.49"/>
<text text-anchor="middle" x="688.47" y="-242.23" font-family="Times New Roman,serif" font-size="14.00">{b, c}</text>
</g>
<!-- 4 -->
<g id="node5" class="node">
<title>4</title>
<ellipse fill="none" stroke="black" cx="1164.47" cy="-115.43" rx="27" ry="18"/>
<text text-anchor="middle" x="1164.47" y="-111.73" font-family="Times New Roman,serif" font-size="14.00">4</text>
</g>
<!-- 2&#45;&gt;4 -->
<g id="edge22" class="edge">
<title>2&#45;&gt;4</title>
<path fill="none" stroke="black" d="M378.67,-288.12C471.1,-286.54 781.21,-277.08 1029.47,-220.43 1098.55,-204.67 1138.73,-224.4 1179.47,-166.43 1184.7,-159 1183.53,-149.72 1180.17,-141.18"/>
<polygon fill="black" stroke="black" points="1183.22,-139.43 1175.68,-131.99 1176.93,-142.51 1183.22,-139.43"/>
<text text-anchor="middle" x="1172.97" y="-198.73" font-family="Times New Roman,serif" font-size="14.00">{c}</text>
</g>
<!-- 3&#45;&gt;1 -->
<g id="edge35" class="edge">
<title>3&#45;&gt;1</title>
<path fill="none" stroke="black" d="M752.7,-199.36C689.39,-193.79 533.98,-175.94 509.47,-133.43 459.95,-47.54 654.27,-29.96 733.88,-26.36"/>
<polygon fill="black" stroke="black" points="734.46,-29.84 744.31,-25.94 734.18,-22.84 734.46,-29.84"/>
<text text-anchor="middle" x="533.97" y="-111.73" font-family="Times New Roman,serif" font-size="14.00">{a, c, d}</text>
</g>
<!-- 3&#45;&gt;1 -->
<g id="edge36" class="edge">
<title>3&#45;&gt;1</title>
<path fill="none" stroke="black" d="M752.21,-201.78C707.98,-200.6 622.7,-190.67 594.47,-133.43 564.38,-72.4 677.41,-42.01 734.87,-30.75"/>
<polygon fill="black" stroke="black" points="735.72,-34.15 744.91,-28.87 734.43,-27.27 735.72,-34.15"/>
<text text-anchor="middle" x="611.97" y="-111.73" font-family="Times New Roman,serif" font-size="14.00">{a, d}</text>
</g>
<!-- 3&#45;&gt;1 -->
<g id="edge37" class="edge">
<title>3&#45;&gt;1</title>
<path fill="none" stroke="black" d="M754.46,-195.13C726.47,-186.53 682.79,-168.06 665.47,-133.43 658.32,-119.12 658.32,-111.75 665.47,-97.43 680.01,-68.36 712.52,-48.54 736.76,-37.17"/>
<polygon fill="black" stroke="black" points="738.2,-40.35 745.91,-33.08 735.35,-33.96 738.2,-40.35"/>
<text text-anchor="middle" x="683.47" y="-111.73" font-family="Times New Roman,serif" font-size="14.00">{c, d}</text>
</g>
<!-- 3&#45;&gt;1 -->
<g id="edge39" class="edge">
<title>3&#45;&gt;1</title>
<path fill="none" stroke="black" d="M766.76,-186.41C756.6,-173.36 743.16,-153.46 737.47,-133.43 729.71,-106.1 740.3,-74.73 750.8,-52.86"/>
<polygon fill="black" stroke="black" points="753.98,-54.32 755.39,-43.82 747.74,-51.15 753.98,-54.32"/>
<text text-anchor="middle" x="762.97" y="-111.73" font-family="Times New Roman,serif" font-size="14.00">{b, c, d}</text>
</g>
<!-- 3&#45;&gt;1 -->
<g id="edge40" class="edge">
<title>3&#45;&gt;1</title>
<path fill="none" stroke="black" d="M783.38,-184.43C787.56,-163.77 793.02,-127.91 788.47,-97.43 786.34,-83.15 781.95,-67.79 777.65,-54.94"/>
<polygon fill="black" stroke="black" points="780.86,-53.53 774.26,-45.24 774.25,-55.83 780.86,-53.53"/>
<text text-anchor="middle" x="821.47" y="-111.73" font-family="Times New Roman,serif" font-size="14.00">{a, b, c, d}</text>
</g>
<!-- 3&#45;&gt;1 -->
<g id="edge41" class="edge">
<title>3&#45;&gt;1</title>
<path fill="none" stroke="black" d="M799.84,-190.53C818.76,-179.12 845.72,-159.27 857.47,-133.43 864.1,-118.87 864.44,-111.84 857.47,-97.43 844.71,-71.05 817.06,-51.41 795.57,-39.36"/>
<polygon fill="black" stroke="black" points="796.98,-36.14 786.51,-34.51 793.68,-42.31 796.98,-36.14"/>
<text text-anchor="middle" x="880.97" y="-111.73" font-family="Times New Roman,serif" font-size="14.00">{b, d}</text>
</g>
<!-- 3&#45;&gt;1 -->
<g id="edge44" class="edge">
<title>3&#45;&gt;1</title>
<path fill="none" stroke="black" d="M804.82,-196.15C834.93,-188.33 883.58,-170.41 903.47,-133.43 911.05,-119.35 911.12,-111.49 903.47,-97.43 882.23,-58.4 831.26,-39.75 797.83,-31.44"/>
<polygon fill="black" stroke="black" points="798.6,-28.02 788.07,-29.18 797.02,-34.84 798.6,-28.02"/>
<text text-anchor="middle" x="933.47" y="-111.73" font-family="Times New Roman,serif" font-size="14.00">{a, b, d}</text>
</g>
<!-- 3&#45;&gt;1 -->
<g id="edge45" class="edge">
<title>3&#45;&gt;1</title>
<path fill="none" stroke="black" d="M805.67,-197.87C864.98,-188.63 1001.47,-160.11 962.47,-97.43 927.92,-41.89 844.7,-28.88 798.58,-26.03"/>
<polygon fill="black" stroke="black" points="798.68,-22.53 788.52,-25.54 798.34,-29.53 798.68,-22.53"/>
<text text-anchor="middle" x="979.47" y="-111.73" font-family="Times New Roman,serif" font-size="14.00">{d}</text>
</g>
<!-- 3&#45;&gt;3 -->
<g id="edge33" class="edge">
<title>3&#45;&gt;3</title>
<path fill="none" stroke="black" d="M806.71,-204.4C816.5,-204.44 824.47,-203.79 824.47,-202.43 824.47,-201.61 821.51,-201.04 816.98,-200.74"/>
<polygon fill="black" stroke="black" points="816.8,-197.23 806.71,-200.47 816.62,-204.23 816.8,-197.23"/>
<text text-anchor="middle" x="841.97" y="-198.73" font-family="Times New Roman,serif" font-size="14.00">{a, b}</text>
</g>
<!-- 3&#45;&gt;3 -->
<g id="edge34" class="edge">
<title>3&#45;&gt;3</title>
<path fill="none" stroke="black" d="M806.09,-205.75C830.63,-207.21 859.47,-206.11 859.47,-202.43 859.47,-199.27 837.97,-198.01 816.31,-198.67"/>
<polygon fill="black" stroke="black" points="815.93,-195.18 806.09,-199.12 816.24,-202.17 815.93,-195.18"/>
<text text-anchor="middle" x="883.97" y="-198.73" font-family="Times New Roman,serif" font-size="14.00">{a, b, c}</text>
</g>
<!-- 3&#45;&gt;3 -->
<g id="edge42" class="edge">
<title>3&#45;&gt;3</title>
<path fill="none" stroke="black" d="M805.8,-206.45C845.9,-209.94 908.47,-208.6 908.47,-202.43 908.47,-196.76 855.52,-195.17 815.83,-197.68"/>
<polygon fill="black" stroke="black" points="815.52,-194.19 805.8,-198.42 816.04,-201.17 815.52,-194.19"/>
<text text-anchor="middle" x="926.47" y="-198.73" font-family="Times New Roman,serif" font-size="14.00">{b, c}</text>
</g>
<!-- 3&#45;&gt;3 -->
<g id="edge43" class="edge">
<title>3&#45;&gt;3</title>
<path fill="none" stroke="black" d="M805.87,-207.12C856.07,-212.59 944.47,-211.03 944.47,-202.43 944.47,-194.4 867.1,-192.51 816.02,-196.78"/>
<polygon fill="black" stroke="black" points="815.49,-193.32 805.87,-197.75 816.16,-200.28 815.49,-193.32"/>
<text text-anchor="middle" x="955.47" y="-198.73" font-family="Times New Roman,serif" font-size="14.00">{b}</text>
</g>
<!-- 3&#45;&gt;4 -->
<g id="edge38" class="edge">
<title>3&#45;&gt;4</title>
<path fill="none" stroke="black" d="M806.38,-199.89C870.41,-195.96 1030.25,-184.59 1080.47,-166.43 1091.95,-162.29 1093.06,-157.81 1103.47,-151.43 1113.76,-145.14 1125.18,-138.49 1135.34,-132.7"/>
<polygon fill="black" stroke="black" points="1137.27,-135.63 1144.25,-127.66 1133.82,-129.54 1137.27,-135.63"/>
<text text-anchor="middle" x="1113.97" y="-155.23" font-family="Times New Roman,serif" font-size="14.00">{c}</text>
</g>
<!-- 3&#45;&gt;4 -->
<g id="edge46" class="edge">
<title>3&#45;&gt;4</title>
<path fill="none" stroke="black" d="M806.54,-201.35C877.95,-200.72 1069.75,-196.23 1124.47,-166.43 1135.09,-160.66 1143.9,-150.77 1150.53,-141.3"/>
<polygon fill="black" stroke="black" points="1153.5,-143.16 1155.99,-132.86 1147.62,-139.35 1153.5,-143.16"/>
<text text-anchor="middle" x="1158.47" y="-155.23" font-family="Times New Roman,serif" font-size="14.00">{a, c}</text>
</g>
<!-- 4&#45;&gt;1 -->
<g id="edge47" class="edge">
<title>4&#45;&gt;1</title>
<path fill="none" stroke="black" d="M1139.68,-107.74C1126.6,-104.36 1110.24,-100.36 1095.47,-97.43 1043,-87.03 1026.46,-98.48 976.47,-79.43 965.07,-75.09 964.75,-69.09 953.47,-64.43 901.64,-43.02 836.69,-32.88 798.57,-28.46"/>
<polygon fill="black" stroke="black" points="798.88,-24.98 788.56,-27.36 798.12,-31.93 798.88,-24.98"/>
<text text-anchor="middle" x="1000.97" y="-68.23" font-family="Times New Roman,serif" font-size="14.00">{a, c, d}</text>
</g>
<!-- 4&#45;&gt;1 -->
<g id="edge48" class="edge">
<title>4&#45;&gt;1</title>
<path fill="none" stroke="black" d="M1138.82,-108.92C1114.79,-103.25 1078.22,-93.28 1048.47,-79.43 1037.41,-74.29 1036.88,-68.78 1025.47,-64.43 947.87,-34.9 849.2,-27.66 799,-25.93"/>
<polygon fill="black" stroke="black" points="798.86,-22.42 788.76,-25.63 798.65,-29.42 798.86,-22.42"/>
<text text-anchor="middle" x="1065.97" y="-68.23" font-family="Times New Roman,serif" font-size="14.00">{a, d}</text>
</g>
<!-- 4&#45;&gt;1 -->
<g id="edge49" class="edge">
<title>4&#45;&gt;1</title>
<path fill="none" stroke="black" d="M1145.03,-102.94C1133.72,-96.19 1119.22,-87.44 1106.47,-79.43 1096.13,-72.95 1094.94,-68.62 1083.47,-64.43 984.42,-28.26 857.61,-24.31 798.93,-24.67"/>
<polygon fill="black" stroke="black" points="798.75,-21.17 788.79,-24.78 798.83,-28.17 798.75,-21.17"/>
<text text-anchor="middle" x="1124.47" y="-68.23" font-family="Times New Roman,serif" font-size="14.00">{c, d}</text>
</g>
<!-- 4&#45;&gt;1 -->
<g id="edge51" class="edge">
<title>4&#45;&gt;1</title>
<path fill="none" stroke="black" d="M1161.5,-97.27C1158.61,-86.07 1153.05,-72.14 1142.47,-64.43 1088.16,-24.85 880.1,-23.64 799.05,-24.74"/>
<polygon fill="black" stroke="black" points="798.87,-21.24 788.93,-24.9 798.98,-28.24 798.87,-21.24"/>
<text text-anchor="middle" x="1179.97" y="-68.23" font-family="Times New Roman,serif" font-size="14.00">{b, c, d}</text>
</g>
<!-- 4&#45;&gt;1 -->
<g id="edge53" class="edge">
<title>4&#45;&gt;1</title>
<path fill="none" stroke="black" d="M1185.34,-103.66C1202.37,-93.5 1221.78,-77.87 1209.47,-64.43 1181.83,-34.25 896.03,-27.31 798.71,-25.82"/>
<polygon fill="black" stroke="black" points="798.64,-22.32 788.59,-25.67 798.54,-29.32 798.64,-22.32"/>
<text text-anchor="middle" x="1244.47" y="-68.23" font-family="Times New Roman,serif" font-size="14.00">{a, b, c, d}</text>
</g>
<!-- 4&#45;&gt;1 -->
<g id="edge55" class="edge">
<title>4&#45;&gt;1</title>
<path fill="none" stroke="black" d="M1191.29,-112.05C1233.6,-107.33 1308.35,-94.51 1280.47,-64.43 1247.72,-29.1 906.33,-25.62 798.75,-25.4"/>
<polygon fill="black" stroke="black" points="798.52,-21.9 788.52,-25.39 798.51,-28.9 798.52,-21.9"/>
<text text-anchor="middle" x="1304.97" y="-68.23" font-family="Times New Roman,serif" font-size="14.00">{b, d}</text>
</g>
<!-- 4&#45;&gt;1 -->
<g id="edge56" class="edge">
<title>4&#45;&gt;1</title>
<path fill="none" stroke="black" d="M1191.51,-114.5C1247.48,-113.8 1367.55,-107.4 1327.47,-64.43 1291.3,-25.66 912.53,-24.61 798.67,-25.18"/>
<polygon fill="black" stroke="black" points="798.48,-21.68 788.5,-25.24 798.52,-28.68 798.48,-21.68"/>
<text text-anchor="middle" x="1359.47" y="-68.23" font-family="Times New Roman,serif" font-size="14.00">{a, b, d}</text>
</g>
<!-- 4&#45;&gt;1 -->
<g id="edge57" class="edge">
<title>4&#45;&gt;1</title>
<path fill="none" stroke="black" d="M1191.48,-114.4C1245.41,-113.69 1363.39,-108.74 1388.47,-79.43 1392.81,-74.37 1393.04,-69.29 1388.47,-64.43 1368.09,-42.74 923.03,-29.52 798.56,-26.24"/>
<polygon fill="black" stroke="black" points="798.6,-22.74 788.51,-25.98 798.42,-29.74 798.6,-22.74"/>
<text text-anchor="middle" x="1402.47" y="-68.23" font-family="Times New Roman,serif" font-size="14.00">{d}</text>
</g>
<!-- 4&#45;&gt;4 -->
<g id="edge50" class="edge">
<title>4&#45;&gt;4</title>
<path fill="none" stroke="black" d="M1191.71,-117.4C1201.5,-117.44 1209.47,-116.79 1209.47,-115.43 1209.47,-114.61 1206.51,-114.04 1201.98,-113.74"/>
<polygon fill="black" stroke="black" points="1201.8,-110.23 1191.71,-113.47 1201.62,-117.23 1201.8,-110.23"/>
<text text-anchor="middle" x="1219.97" y="-111.73" font-family="Times New Roman,serif" font-size="14.00">{c}</text>
</g>
<!-- 4&#45;&gt;4 -->
<g id="edge52" class="edge">
<title>4&#45;&gt;4</title>
<path fill="none" stroke="black" d="M1191.15,-118.95C1210.63,-120.09 1230.47,-118.92 1230.47,-115.43 1230.47,-112.57 1217.12,-111.27 1201.57,-111.53"/>
<polygon fill="black" stroke="black" points="1201.01,-108.05 1191.15,-111.92 1201.27,-115.04 1201.01,-108.05"/>
<text text-anchor="middle" x="1254.97" y="-111.73" font-family="Times New Roman,serif" font-size="14.00">{a, b, c}</text>
</g>
<!-- 4&#45;&gt;4 -->
<g id="edge54" class="edge">
<title>4&#45;&gt;4</title>
<path fill="none" stroke="black" d="M1190.76,-119.6C1227.1,-122.9 1279.47,-121.51 1279.47,-115.43 1279.47,-109.9 1236.08,-108.26 1200.89,-110.49"/>
<polygon fill="black" stroke="black" points="1200.46,-107.02 1190.76,-111.27 1201,-114 1200.46,-107.02"/>
<text text-anchor="middle" x="1297.47" y="-111.73" font-family="Times New Roman,serif" font-size="14.00">{b, c}</text>
</g>
<!-- 4&#45;&gt;4 -->
<g id="edge58" class="edge">
<title>4&#45;&gt;4</title>
<path fill="none" stroke="black" d="M1190.66,-120.23C1237.57,-125.57 1315.47,-123.97 1315.47,-115.43 1315.47,-107.49 1247.86,-105.55 1200.68,-109.64"/>
<polygon fill="black" stroke="black" points="1200.27,-106.16 1190.66,-110.64 1200.96,-113.13 1200.27,-106.16"/>
<text text-anchor="middle" x="1332.47" y="-111.73" font-family="Times New Roman,serif" font-size="14.00">{a, c}</text>
</g>
</g>
</svg>
